<?xml version="1.0" encoding="UTF-8"?>
<!DOCTYPE svg PUBLIC "-//W3C//DTD SVG 1.1//EN" "http://www.w3.org/Graphics/SVG/1.1/DTD/svg11.dtd">
<svg xmlns="http://www.w3.org/2000/svg" version="1.1" width="500px" height="500px" style="shape-rendering:geometricPrecision; text-rendering:geometricPrecision; image-rendering:optimizeQuality; fill-rule:evenodd; clip-rule:evenodd" xmlns:xlink="http://www.w3.org/1999/xlink">
<g><path style="opacity:0.114" fill="#98b5c4" d="M 191.5,99.5 C 202.122,98.0173 212.789,98.3507 223.5,100.5C 223.5,100.833 223.5,101.167 223.5,101.5C 220.14,101.384 216.807,101.051 213.5,100.5C 206.352,99.5084 199.019,99.175 191.5,99.5 Z"/></g>
<g><path style="opacity:0.571" fill="#d1e5ee" d="M 191.5,99.5 C 199.019,99.175 206.352,99.5084 213.5,100.5C 206.443,100.24 199.443,100.573 192.5,101.5C 190.5,101.5 188.5,101.5 186.5,101.5C 188.167,100.833 189.833,100.167 191.5,99.5 Z"/></g>
<g><path style="opacity:0.298" fill="#b091c7" d="M 239.5,99.5 C 236.833,99.8333 234.167,100.167 231.5,100.5C 230.833,100.833 230.167,101.167 229.5,101.5C 228.494,101.062 228.494,100.396 229.5,99.5C 232.985,98.4095 236.319,98.4095 239.5,99.5 Z"/></g>
<g><path style="opacity:0.122" fill="#aca6c4" d="M 229.5,99.5 C 228.494,100.396 228.494,101.062 229.5,101.5C 229.5,102.167 229.167,102.5 228.5,102.5C 226.585,102.784 224.919,102.451 223.5,101.5C 223.5,101.167 223.5,100.833 223.5,100.5C 225.565,100.483 227.565,100.15 229.5,99.5 Z"/></g>
<g><path style="opacity:0.122" fill="#98b5c2" d="M 191.5,99.5 C 189.833,100.167 188.167,100.833 186.5,101.5C 173.531,102.824 161.198,106.157 149.5,111.5C 148.833,111.5 148.167,111.5 147.5,111.5C 161.093,104.099 175.76,100.099 191.5,99.5 Z"/></g>
<g><path style="opacity:1" fill="#fefefe" d="M 213.5,100.5 C 216.807,101.051 220.14,101.384 223.5,101.5C 224.919,102.451 226.585,102.784 228.5,102.5C 229.93,103.537 231.597,104.204 233.5,104.5C 235.426,105.486 237.426,106.486 239.5,107.5C 239.833,107.5 240.167,107.5 240.5,107.5C 241.93,108.537 243.597,109.204 245.5,109.5C 247.558,111.242 249.225,113.409 250.5,116C 255.655,117.11 260.655,118.944 265.5,121.5C 265.5,125.5 267.5,127.5 271.5,127.5C 271.833,127.5 272.167,127.5 272.5,127.5C 273.373,129.886 274.873,131.886 277,133.5C 277.333,134.833 277.667,136.167 278,137.5C 279.992,138.328 281.492,139.661 282.5,141.5C 282.966,143.201 282.966,144.701 282.5,146C 285.914,150.453 288.914,154.953 291.5,159.5C 291.248,162.32 291.748,164.986 293,167.5C 297.964,165.419 303.131,163.919 308.5,163C 308.167,162.667 307.833,162.333 307.5,162C 312.732,161.235 317.732,160.069 322.5,158.5C 329.505,157.221 336.505,157.221 343.5,158.5C 343.842,159.338 344.508,159.672 345.5,159.5C 345.5,160.833 345.5,162.167 345.5,163.5C 351.584,163.42 355.584,166.254 357.5,172C 359.197,172.384 360.863,172.218 362.5,171.5C 362.586,172.496 362.252,173.329 361.5,174C 363.747,175.277 365.747,176.777 367.5,178.5C 368.167,178.833 368.833,179.167 369.5,179.5C 370.413,181.086 370.413,182.586 369.5,184C 372.136,188.412 374.802,192.578 377.5,196.5C 377.5,196.833 377.5,197.167 377.5,197.5C 377.491,199.308 377.991,200.975 379,202.5C 379.223,209.567 379.389,216.567 379.5,223.5C 381.423,224.308 383.423,224.808 385.5,225C 384.007,226.156 384.174,226.99 386,227.5C 386.873,227.265 387.707,226.931 388.5,226.5C 392.072,227.681 395.738,228.348 399.5,228.5C 403.098,231.313 406.765,234.147 410.5,237C 413.639,237.492 416.306,238.825 418.5,241C 420.66,244.326 423.327,247.159 426.5,249.5C 428.167,250.833 429.833,252.167 431.5,253.5C 431.5,254.167 431.5,254.833 431.5,255.5C 433.034,259.587 434.868,263.587 437,267.5C 437.713,273.307 439.046,278.974 441,284.5C 441.741,287.562 441.575,290.562 440.5,293.5C 440.846,294.696 441.346,294.696 442,293.5C 442.167,294.667 442.333,295.833 442.5,297C 442.703,306.437 442.203,315.937 441,325.5C 438.878,329.876 437.711,334.543 437.5,339.5C 437.5,340.167 437.5,340.833 437.5,341.5C 436.504,341.414 435.671,341.748 435,342.5C 433.142,345.572 431.976,348.905 431.5,352.5C 431.5,352.833 431.5,353.167 431.5,353.5C 429.413,354.585 428.08,356.251 427.5,358.5C 423.981,361.421 420.314,364.087 416.5,366.5C 414.409,366.318 412.409,366.652 410.5,367.5C 409.614,368.325 409.281,369.325 409.5,370.5C 409.158,371.338 408.492,371.672 407.5,371.5C 403.054,372.122 398.721,373.122 394.5,374.5C 285.495,373.579 176.495,373.246 67.5,373.5C 62.7807,371.978 58.1141,370.145 53.5,368C 51.5273,367.505 49.5273,367.338 47.5,367.5C 46.1667,367.5 44.8333,367.5 43.5,367.5C 42.7377,365.738 41.4044,364.738 39.5,364.5C 36.2157,362.883 33.5491,360.55 31.5,357.5C 31.6734,353.83 30.0067,351.33 26.5,350C 26.8333,349.667 27.1667,349.333 27.5,349C 23.9173,345.247 20.2506,341.747 16.5,338.5C 16.5,338.167 16.5,337.833 16.5,337.5C 16.6107,336.883 16.944,336.383 17.5,336C 13.6967,327.646 11.03,318.813 9.5,309.5C 10.0739,305.482 10.7406,301.482 11.5,297.5C 9.89557,289.136 10.8956,281.136 14.5,273.5C 14.4573,272.584 14.1239,271.917 13.5,271.5C 15.0461,269.118 15.7128,266.451 15.5,263.5C 18.09,262.872 20.4234,261.705 22.5,260C 21.3659,258.984 21.6992,258.317 23.5,258C 22.5494,257.282 22.3828,256.449 23,255.5C 26.0168,253.658 27.5168,250.991 27.5,247.5C 29.9892,247.702 32.3225,247.202 34.5,246C 38.689,241.733 43.0223,237.9 47.5,234.5C 49.0603,234.519 50.5603,234.852 52,235.5C 55.8528,232.885 60.0195,231.052 64.5,230C 71.1176,228.679 77.7843,227.679 84.5,227C 85.2529,225.513 86.0862,225.346 87,226.5C 87.4828,225.552 87.6495,224.552 87.5,223.5C 88.1667,223.5 88.8333,223.5 89.5,223.5C 93.3714,223.815 97.0381,223.482 100.5,222.5C 103.037,217.981 103.037,213.314 100.5,208.5C 100.764,195.672 102.264,183.005 105,170.5C 105.318,168.939 106.151,167.772 107.5,167C 106.978,166.439 106.645,165.772 106.5,165C 108.425,161.145 110.092,157.145 111.5,153C 115.204,148.641 118.037,143.807 120,138.5C 123.384,135.759 126.051,132.426 128,128.5C 131.924,126.743 135.091,124.077 137.5,120.5C 143.378,119.056 148.378,116.223 152.5,112C 156.903,111.116 161.07,109.616 165,107.5C 165.414,107.957 165.914,108.291 166.5,108.5C 168.77,106.309 171.27,105.642 174,106.5C 180.225,104.629 186.392,102.962 192.5,101.5C 199.443,100.573 206.443,100.24 213.5,100.5 Z"/></g>
<g><path style="opacity:1" fill="#d889cc" d="M 239.5,99.5 C 244.735,101.033 250.069,102.7 255.5,104.5C 253.833,104.5 252.167,104.5 250.5,104.5C 247.313,103.194 243.98,103.194 240.5,104.5C 241.993,105.141 242.993,106.141 243.5,107.5C 242.5,107.5 241.5,107.5 240.5,107.5C 240.167,107.5 239.833,107.5 239.5,107.5C 239.5,106.833 239.5,106.167 239.5,105.5C 239.389,104.883 239.056,104.383 238.5,104C 236.5,103.667 234.5,103.333 232.5,103C 231.748,102.329 231.414,101.496 231.5,100.5C 234.167,100.167 236.833,99.8333 239.5,99.5 Z"/></g>
<g><path style="opacity:1" fill="#d4a2cc" d="M 231.5,100.5 C 231.414,101.496 231.748,102.329 232.5,103C 234.5,103.333 236.5,103.667 238.5,104C 239.056,104.383 239.389,104.883 239.5,105.5C 237.565,104.85 235.565,104.517 233.5,104.5C 231.597,104.204 229.93,103.537 228.5,102.5C 229.167,102.5 229.5,102.167 229.5,101.5C 230.167,101.167 230.833,100.833 231.5,100.5 Z"/></g>
<g><path style="opacity:1" fill="#f3d1ed" d="M 233.5,104.5 C 235.565,104.517 237.565,104.85 239.5,105.5C 239.5,106.167 239.5,106.833 239.5,107.5C 237.426,106.486 235.426,105.486 233.5,104.5 Z"/></g>
<g><path style="opacity:0.114" fill="#b190c5" d="M 239.5,99.5 C 253.67,101.038 267.004,105.038 279.5,111.5C 276.833,111.167 274.167,110.833 271.5,110.5C 271.5,110.167 271.5,109.833 271.5,109.5C 266.55,106.949 261.216,105.282 255.5,104.5C 250.069,102.7 244.735,101.033 239.5,99.5 Z"/></g>
<g><path style="opacity:1" fill="#f7c5eb" d="M 240.5,107.5 C 241.5,107.5 242.5,107.5 243.5,107.5C 244.995,107.989 246.329,108.655 247.5,109.5C 246.833,109.5 246.167,109.5 245.5,109.5C 243.597,109.204 241.93,108.537 240.5,107.5 Z"/></g>
<g><path style="opacity:1" fill="#f678cc" d="M 250.5,104.5 C 252.167,104.5 253.833,104.5 255.5,104.5C 257.944,106.072 260.61,107.572 263.5,109C 266.146,109.497 268.813,109.664 271.5,109.5C 271.5,109.833 271.5,110.167 271.5,110.5C 271.5,110.833 271.5,111.167 271.5,111.5C 269.497,112.984 267.33,114.317 265,115.5C 263.061,115.046 261.228,114.379 259.5,113.5C 257.396,111.901 255.396,110.068 253.5,108C 250.638,107.73 247.972,106.896 245.5,105.5C 247.045,104.548 248.712,104.215 250.5,104.5 Z"/></g>
<g><path style="opacity:1" fill="#dd85cc" d="M 255.5,104.5 C 261.216,105.282 266.55,106.949 271.5,109.5C 268.813,109.664 266.146,109.497 263.5,109C 260.61,107.572 257.944,106.072 255.5,104.5 Z"/></g>
<g><path style="opacity:1" fill="#ed7ec8" d="M 250.5,104.5 C 248.712,104.215 247.045,104.548 245.5,105.5C 247.972,106.896 250.638,107.73 253.5,108C 255.396,110.068 257.396,111.901 259.5,113.5C 258.833,113.5 258.167,113.5 257.5,113.5C 256.508,113.672 255.842,113.338 255.5,112.5C 253.967,110.755 251.967,109.755 249.5,109.5C 248.833,109.5 248.167,109.5 247.5,109.5C 246.329,108.655 244.995,107.989 243.5,107.5C 242.993,106.141 241.993,105.141 240.5,104.5C 243.98,103.194 247.313,103.194 250.5,104.5 Z"/></g>
<g><path style="opacity:1" fill="#f4c0e4" d="M 247.5,109.5 C 248.167,109.5 248.833,109.5 249.5,109.5C 249.833,110.167 250.167,110.833 250.5,111.5C 248.973,111.573 247.973,110.906 247.5,109.5 Z"/></g>
<g><path style="opacity:1" fill="#dd94c5" d="M 249.5,109.5 C 251.967,109.755 253.967,110.755 255.5,112.5C 253.784,112.371 252.117,112.038 250.5,111.5C 250.167,110.833 249.833,110.167 249.5,109.5 Z"/></g>
<g><path style="opacity:0.604" fill="#b5cdd7" d="M 147.5,111.5 C 148.167,111.5 148.833,111.5 149.5,111.5C 147.819,113.008 145.819,114.008 143.5,114.5C 143.5,114.167 143.5,113.833 143.5,113.5C 144.514,112.326 145.847,111.66 147.5,111.5 Z"/></g>
<g><path style="opacity:1" fill="#fef1fe" d="M 245.5,109.5 C 246.167,109.5 246.833,109.5 247.5,109.5C 247.973,110.906 248.973,111.573 250.5,111.5C 253.144,113.723 256.144,115.389 259.5,116.5C 259.842,117.338 260.508,117.672 261.5,117.5C 262.833,118.833 264.167,120.167 265.5,121.5C 260.655,118.944 255.655,117.11 250.5,116C 249.225,113.409 247.558,111.242 245.5,109.5 Z"/></g>
<g><path style="opacity:1" fill="#f4c5e8" d="M 250.5,111.5 C 252.117,112.038 253.784,112.371 255.5,112.5C 255.842,113.338 256.508,113.672 257.5,113.5C 258.167,114.5 258.833,115.5 259.5,116.5C 256.144,115.389 253.144,113.723 250.5,111.5 Z"/></g>
<g><path style="opacity:1" fill="#e085cb" d="M 271.5,111.5 C 271.5,111.167 271.5,110.833 271.5,110.5C 274.167,110.833 276.833,111.167 279.5,111.5C 280.167,112.833 280.833,114.167 281.5,115.5C 280.5,115.5 279.5,115.5 278.5,115.5C 278.5,114.5 278.5,113.5 278.5,112.5C 276.05,112.702 273.717,112.369 271.5,111.5 Z"/></g>
<g><path style="opacity:0.812" fill="#c68ec7" d="M 279.5,111.5 C 281.284,111.893 282.95,112.559 284.5,113.5C 285.306,114.728 286.306,115.728 287.5,116.5C 285.435,116.483 283.435,116.15 281.5,115.5C 280.833,114.167 280.167,112.833 279.5,111.5 Z"/></g>
<g><path style="opacity:1" fill="#e884be" d="M 257.5,113.5 C 258.167,113.5 258.833,113.5 259.5,113.5C 265.03,116.351 270.03,120.018 274.5,124.5C 275.11,125.391 275.443,126.391 275.5,127.5C 274.833,127.5 274.167,127.5 273.5,127.5C 270.381,123.043 266.381,119.709 261.5,117.5C 260.508,117.672 259.842,117.338 259.5,116.5C 258.833,115.5 258.167,114.5 257.5,113.5 Z"/></g>
<g><path style="opacity:1" fill="#f87dc5" d="M 271.5,111.5 C 273.717,112.369 276.05,112.702 278.5,112.5C 278.5,113.5 278.5,114.5 278.5,115.5C 279.5,115.5 280.5,115.5 281.5,115.5C 283.435,116.15 285.435,116.483 287.5,116.5C 288.211,118.03 289.211,119.363 290.5,120.5C 291.548,122.534 293.214,123.867 295.5,124.5C 296.833,125.5 296.833,126.5 295.5,127.5C 294.252,126.96 293.085,126.293 292,125.5C 291.612,126.428 290.945,127.095 290,127.5C 288.604,126.606 287.104,125.939 285.5,125.5C 283.417,126.959 281.25,128.292 279,129.5C 278.803,127.484 277.803,125.484 276,123.5C 275.617,124.056 275.117,124.389 274.5,124.5C 270.03,120.018 265.03,116.351 259.5,113.5C 261.228,114.379 263.061,115.046 265,115.5C 267.33,114.317 269.497,112.984 271.5,111.5 Z"/></g>
<g><path style="opacity:1" fill="#eaa6cf" d="M 261.5,117.5 C 266.381,119.709 270.381,123.043 273.5,127.5C 273.167,127.5 272.833,127.5 272.5,127.5C 272.167,127.5 271.833,127.5 271.5,127.5C 269.833,125.167 267.833,123.167 265.5,121.5C 264.167,120.167 262.833,118.833 261.5,117.5 Z"/></g>
<g><path style="opacity:0.588" fill="#d08ec6" d="M 287.5,116.5 C 293.005,118.749 298.005,121.749 302.5,125.5C 301.5,125.5 300.5,125.5 299.5,125.5C 296.992,123.076 293.992,121.41 290.5,120.5C 289.211,119.363 288.211,118.03 287.5,116.5 Z"/></g>
<g><path style="opacity:0.255" fill="#9bb8c5" d="M 143.5,113.5 C 143.5,113.833 143.5,114.167 143.5,114.5C 131.183,122.484 120.85,132.484 112.5,144.5C 117.417,135.066 124.083,126.899 132.5,120C 135.892,117.306 139.559,115.14 143.5,113.5 Z"/></g>
<g><path style="opacity:1" fill="#fef1fe" d="M 265.5,121.5 C 267.833,123.167 269.833,125.167 271.5,127.5C 267.5,127.5 265.5,125.5 265.5,121.5 Z"/></g>
<g><path style="opacity:1" fill="#f781be" d="M 290.5,120.5 C 293.992,121.41 296.992,123.076 299.5,125.5C 302.513,126.513 304.513,128.513 305.5,131.5C 307.903,131.448 310.236,131.781 312.5,132.5C 312.5,133.833 312.5,135.167 312.5,136.5C 310.801,136.66 309.134,136.494 307.5,136C 306.881,134.243 305.714,133.076 304,132.5C 298.661,134.553 293.495,136.886 288.5,139.5C 286.925,138.544 285.258,137.877 283.5,137.5C 281.213,133.878 278.547,130.545 275.5,127.5C 275.443,126.391 275.11,125.391 274.5,124.5C 275.117,124.389 275.617,124.056 276,123.5C 277.803,125.484 278.803,127.484 279,129.5C 281.25,128.292 283.417,126.959 285.5,125.5C 287.104,125.939 288.604,126.606 290,127.5C 290.945,127.095 291.612,126.428 292,125.5C 293.085,126.293 294.252,126.96 295.5,127.5C 296.833,126.5 296.833,125.5 295.5,124.5C 293.214,123.867 291.548,122.534 290.5,120.5 Z"/></g>
<g><path style="opacity:0.984" fill="#e18bc1" d="M 299.5,125.5 C 300.5,125.5 301.5,125.5 302.5,125.5C 306.389,127.058 309.722,129.391 312.5,132.5C 310.236,131.781 307.903,131.448 305.5,131.5C 304.513,128.513 302.513,126.513 299.5,125.5 Z"/></g>
<g><path style="opacity:1" fill="#e392bb" d="M 273.5,127.5 C 274.167,127.5 274.833,127.5 275.5,127.5C 278.547,130.545 281.213,133.878 283.5,137.5C 284.877,139.289 285.877,141.289 286.5,143.5C 286.167,143.5 285.833,143.5 285.5,143.5C 284.833,142.833 284.167,142.167 283.5,141.5C 281.158,136.158 277.825,131.492 273.5,127.5 Z"/></g>
<g><path style="opacity:0.286" fill="#ae96bc" d="M 284.5,113.5 C 301.681,121.587 317.347,131.92 331.5,144.5C 332.075,146.411 333.075,148.078 334.5,149.5C 331.74,148.577 329.74,146.744 328.5,144C 326.753,143.648 325.086,143.148 323.5,142.5C 322.674,140.736 321.341,139.402 319.5,138.5C 318.578,136.184 316.911,134.517 314.5,133.5C 313.833,133.167 313.167,132.833 312.5,132.5C 309.722,129.391 306.389,127.058 302.5,125.5C 298.005,121.749 293.005,118.749 287.5,116.5C 286.306,115.728 285.306,114.728 284.5,113.5 Z"/></g>
<g><path style="opacity:1" fill="#f786b8" d="M 312.5,132.5 C 313.167,132.833 313.833,133.167 314.5,133.5C 315.144,136.144 316.811,137.811 319.5,138.5C 319.5,139.5 319.5,140.5 319.5,141.5C 314.22,142.522 308.887,143.355 303.5,144C 302.826,145.751 302.493,147.417 302.5,149C 299.854,149.497 297.187,149.664 294.5,149.5C 294.737,150.791 294.404,151.791 293.5,152.5C 290.447,150.003 288.114,147.003 286.5,143.5C 285.877,141.289 284.877,139.289 283.5,137.5C 285.258,137.877 286.925,138.544 288.5,139.5C 293.495,136.886 298.661,134.553 304,132.5C 305.714,133.076 306.881,134.243 307.5,136C 309.134,136.494 310.801,136.66 312.5,136.5C 312.5,135.167 312.5,133.833 312.5,132.5 Z"/></g>
<g><path style="opacity:1" fill="#fddef3" d="M 272.5,127.5 C 272.833,127.5 273.167,127.5 273.5,127.5C 277.825,131.492 281.158,136.158 283.5,141.5C 283.167,141.5 282.833,141.5 282.5,141.5C 281.492,139.661 279.992,138.328 278,137.5C 277.667,136.167 277.333,134.833 277,133.5C 274.873,131.886 273.373,129.886 272.5,127.5 Z"/></g>
<g><path style="opacity:0.91" fill="#d991bb" d="M 314.5,133.5 C 316.911,134.517 318.578,136.184 319.5,138.5C 316.811,137.811 315.144,136.144 314.5,133.5 Z"/></g>
<g><path style="opacity:1" fill="#feebf6" d="M 282.5,141.5 C 282.833,141.5 283.167,141.5 283.5,141.5C 284.167,142.167 284.833,142.833 285.5,143.5C 286.13,145.75 287.13,147.75 288.5,149.5C 289.901,152.704 290.901,156.037 291.5,159.5C 288.914,154.953 285.914,150.453 282.5,146C 282.966,144.701 282.966,143.201 282.5,141.5 Z"/></g>
<g><path style="opacity:0.993" fill="#eefafd" d="M 186.5,101.5 C 188.5,101.5 190.5,101.5 192.5,101.5C 186.392,102.962 180.225,104.629 174,106.5C 171.27,105.642 168.77,106.309 166.5,108.5C 165.914,108.291 165.414,107.957 165,107.5C 161.07,109.616 156.903,111.116 152.5,112C 148.378,116.223 143.378,119.056 137.5,120.5C 135.091,124.077 131.924,126.743 128,128.5C 126.051,132.426 123.384,135.759 120,138.5C 118.037,143.807 115.204,148.641 111.5,153C 110.092,157.145 108.425,161.145 106.5,165C 106.645,165.772 106.978,166.439 107.5,167C 106.151,167.772 105.318,168.939 105,170.5C 102.264,183.005 100.764,195.672 100.5,208.5C 103.037,213.314 103.037,217.981 100.5,222.5C 100.795,220.265 100.461,218.265 99.5,216.5C 97.39,193.867 100.723,172.2 109.5,151.5C 110.906,151.027 111.573,150.027 111.5,148.5C 111.833,147.167 112.167,145.833 112.5,144.5C 120.85,132.484 131.183,122.484 143.5,114.5C 145.819,114.008 147.819,113.008 149.5,111.5C 161.198,106.157 173.531,102.824 186.5,101.5 Z"/></g>
<g><path style="opacity:1" fill="#f988b2" d="M 319.5,138.5 C 321.341,139.402 322.674,140.736 323.5,142.5C 325.796,145.462 328.462,148.129 331.5,150.5C 331.804,151.15 332.137,151.817 332.5,152.5C 321.426,153.278 310.426,153.611 299.5,153.5C 299.682,155.591 299.348,157.591 298.5,159.5C 297.675,160.386 296.675,160.719 295.5,160.5C 294.883,160.389 294.383,160.056 294,159.5C 293.503,157.19 293.337,154.857 293.5,152.5C 294.404,151.791 294.737,150.791 294.5,149.5C 297.187,149.664 299.854,149.497 302.5,149C 302.493,147.417 302.826,145.751 303.5,144C 308.887,143.355 314.22,142.522 319.5,141.5C 319.5,140.5 319.5,139.5 319.5,138.5 Z"/></g>
<g><path style="opacity:0.125" fill="#a39db8" d="M 331.5,144.5 C 335.876,147.874 339.542,151.874 342.5,156.5C 342.5,156.833 342.5,157.167 342.5,157.5C 341.167,157.167 339.833,156.833 338.5,156.5C 338.851,153.188 337.518,150.855 334.5,149.5C 333.075,148.078 332.075,146.411 331.5,144.5 Z"/></g>
<g><path style="opacity:0.063" fill="#8cabbd" d="M 112.5,144.5 C 112.167,145.833 111.833,147.167 111.5,148.5C 110.833,148.833 110.167,149.167 109.5,149.5C 109.75,147.326 110.75,145.659 112.5,144.5 Z"/></g>
<g><path style="opacity:0.416" fill="#bbd4e2" d="M 111.5,148.5 C 111.573,150.027 110.906,151.027 109.5,151.5C 109.5,150.833 109.5,150.167 109.5,149.5C 110.167,149.167 110.833,148.833 111.5,148.5 Z"/></g>
<g><path style="opacity:1" fill="#e1a4bc" d="M 288.5,149.5 C 291.567,152.015 292.901,155.349 292.5,159.5C 292.167,159.5 291.833,159.5 291.5,159.5C 290.901,156.037 289.901,152.704 288.5,149.5 Z"/></g>
<g><path style="opacity:1" fill="#e793b3" d="M 285.5,143.5 C 285.833,143.5 286.167,143.5 286.5,143.5C 288.114,147.003 290.447,150.003 293.5,152.5C 293.337,154.857 293.503,157.19 294,159.5C 294.383,160.056 294.883,160.389 295.5,160.5C 295.5,160.833 295.5,161.167 295.5,161.5C 294.391,161.443 293.391,161.11 292.5,160.5C 292.5,160.167 292.5,159.833 292.5,159.5C 292.901,155.349 291.567,152.015 288.5,149.5C 287.13,147.75 286.13,145.75 285.5,143.5 Z"/></g>
<g><path style="opacity:1" fill="#f48cb1" d="M 331.5,150.5 C 334.179,150.525 335.512,151.858 335.5,154.5C 326.494,154.7 317.494,155.034 308.5,155.5C 308.5,156.5 308.5,157.5 308.5,158.5C 307.432,159.434 306.099,159.768 304.5,159.5C 301.791,160.013 299.291,161.013 297,162.5C 296.235,162.43 295.735,162.097 295.5,161.5C 295.5,161.167 295.5,160.833 295.5,160.5C 296.675,160.719 297.675,160.386 298.5,159.5C 299.348,157.591 299.682,155.591 299.5,153.5C 310.426,153.611 321.426,153.278 332.5,152.5C 332.137,151.817 331.804,151.15 331.5,150.5 Z"/></g>
<g><path style="opacity:1" fill="#e298b5" d="M 323.5,142.5 C 325.086,143.148 326.753,143.648 328.5,144C 329.74,146.744 331.74,148.577 334.5,149.5C 337.518,150.855 338.851,153.188 338.5,156.5C 332.833,156.5 327.167,156.5 321.5,156.5C 318.123,156.068 315.123,156.735 312.5,158.5C 312.167,158.5 311.833,158.5 311.5,158.5C 310.5,158.5 309.5,158.5 308.5,158.5C 308.5,157.5 308.5,156.5 308.5,155.5C 317.494,155.034 326.494,154.7 335.5,154.5C 335.512,151.858 334.179,150.525 331.5,150.5C 328.462,148.129 325.796,145.462 323.5,142.5 Z"/></g>
<g><path style="opacity:1" fill="#f8e2f0" d="M 321.5,156.5 C 327.167,156.5 332.833,156.5 338.5,156.5C 339.833,156.833 341.167,157.167 342.5,157.5C 343.167,157.5 343.5,157.833 343.5,158.5C 336.505,157.221 329.505,157.221 322.5,158.5C 320.5,158.5 318.5,158.5 316.5,158.5C 318.167,157.833 319.833,157.167 321.5,156.5 Z"/></g>
<g><path style="opacity:1" fill="#f0bcd0" d="M 321.5,156.5 C 319.833,157.167 318.167,157.833 316.5,158.5C 315.167,158.5 313.833,158.5 312.5,158.5C 315.123,156.735 318.123,156.068 321.5,156.5 Z"/></g>
<g><path style="opacity:1" fill="#fdeff7" d="M 311.5,158.5 C 311.833,158.5 312.167,158.5 312.5,158.5C 313.833,158.5 315.167,158.5 316.5,158.5C 318.5,158.5 320.5,158.5 322.5,158.5C 317.732,160.069 312.732,161.235 307.5,162C 307.833,162.333 308.167,162.667 308.5,163C 303.131,163.919 297.964,165.419 293,167.5C 291.748,164.986 291.248,162.32 291.5,159.5C 291.833,159.5 292.167,159.5 292.5,159.5C 292.5,159.833 292.5,160.167 292.5,160.5C 292.532,162.567 293.532,163.9 295.5,164.5C 298.183,163.49 300.849,162.49 303.5,161.5C 306.486,161.097 309.152,160.097 311.5,158.5 Z"/></g>
<g><path style="opacity:1" fill="#ecc0cf" d="M 308.5,158.5 C 309.5,158.5 310.5,158.5 311.5,158.5C 309.152,160.097 306.486,161.097 303.5,161.5C 303.833,160.833 304.167,160.167 304.5,159.5C 306.099,159.768 307.432,159.434 308.5,158.5 Z"/></g>
<g><path style="opacity:1" fill="#effbfd" d="M 345.5,159.5 C 352.26,161.922 357.926,165.922 362.5,171.5C 360.863,172.218 359.197,172.384 357.5,172C 355.584,166.254 351.584,163.42 345.5,163.5C 345.5,162.167 345.5,160.833 345.5,159.5 Z"/></g>
<g><path style="opacity:1" fill="#df9eb4" d="M 304.5,159.5 C 304.167,160.167 303.833,160.833 303.5,161.5C 300.849,162.49 298.183,163.49 295.5,164.5C 293.532,163.9 292.532,162.567 292.5,160.5C 293.391,161.11 294.391,161.443 295.5,161.5C 295.735,162.097 296.235,162.43 297,162.5C 299.291,161.013 301.791,160.013 304.5,159.5 Z"/></g>
<g><path style="opacity:0.2" fill="#95b3c2" d="M 342.5,157.5 C 342.5,157.167 342.5,156.833 342.5,156.5C 350.649,159.07 357.649,163.403 363.5,169.5C 363.5,170.167 363.5,170.833 363.5,171.5C 363.167,171.5 362.833,171.5 362.5,171.5C 357.926,165.922 352.26,161.922 345.5,159.5C 344.508,159.672 343.842,159.338 343.5,158.5C 343.5,157.833 343.167,157.5 342.5,157.5 Z"/></g>
<g><path style="opacity:0.259" fill="#a59eba" d="M 363.5,169.5 C 365.987,170.323 368.321,171.323 370.5,172.5C 368.901,172.232 367.568,172.566 366.5,173.5C 365.5,172.833 364.5,172.167 363.5,171.5C 363.5,170.833 363.5,170.167 363.5,169.5 Z"/></g>
<g><path style="opacity:1" fill="#f8ecf7" d="M 362.5,171.5 C 362.833,171.5 363.167,171.5 363.5,171.5C 364.5,172.167 365.5,172.833 366.5,173.5C 366.328,174.492 366.662,175.158 367.5,175.5C 367.5,175.833 367.5,176.167 367.5,176.5C 367.5,177.167 367.5,177.833 367.5,178.5C 365.747,176.777 363.747,175.277 361.5,174C 362.252,173.329 362.586,172.496 362.5,171.5 Z"/></g>
<g><path style="opacity:0.714" fill="#c894c0" d="M 370.5,172.5 C 370.833,172.5 371.167,172.5 371.5,172.5C 373.072,173.687 374.739,174.687 376.5,175.5C 373.819,175.538 371.319,174.871 369,173.5C 367.97,173.836 367.47,174.503 367.5,175.5C 366.662,175.158 366.328,174.492 366.5,173.5C 367.568,172.566 368.901,172.232 370.5,172.5 Z"/></g>
<g><path style="opacity:0.122" fill="#a597bd" d="M 371.5,172.5 C 375.784,173.261 379.784,174.595 383.5,176.5C 381.097,176.552 378.764,176.219 376.5,175.5C 374.739,174.687 373.072,173.687 371.5,172.5 Z"/></g>
<g><path style="opacity:1" fill="#e090bb" d="M 376.5,175.5 C 378.764,176.219 381.097,176.552 383.5,176.5C 383.5,177.167 383.5,177.833 383.5,178.5C 379.642,177.175 375.642,176.675 371.5,177C 372.38,178.356 372.714,179.856 372.5,181.5C 371.5,180.833 370.5,180.167 369.5,179.5C 369.573,177.973 368.906,176.973 367.5,176.5C 367.5,176.167 367.5,175.833 367.5,175.5C 367.47,174.503 367.97,173.836 369,173.5C 371.319,174.871 373.819,175.538 376.5,175.5 Z"/></g>
<g><path style="opacity:0.046" fill="#93b1c0" d="M 109.5,149.5 C 109.5,150.167 109.5,150.833 109.5,151.5C 100.723,172.2 97.39,193.867 99.5,216.5C 99.7845,218.415 99.4511,220.081 98.5,221.5C 98.3334,208.496 98.5001,195.496 99,182.5C 100.514,170.746 104.014,159.746 109.5,149.5 Z"/></g>
<g><path style="opacity:1" fill="#fbcfe8" d="M 367.5,176.5 C 368.906,176.973 369.573,177.973 369.5,179.5C 368.833,179.167 368.167,178.833 367.5,178.5C 367.5,177.833 367.5,177.167 367.5,176.5 Z"/></g>
<g><path style="opacity:0.114" fill="#ad95be" d="M 383.5,176.5 C 395.859,179.494 405.525,186.16 412.5,196.5C 411.167,195.5 409.833,194.5 408.5,193.5C 408.027,192.094 407.027,191.427 405.5,191.5C 403.621,188.885 401.288,186.719 398.5,185C 394.585,182.903 390.585,181.069 386.5,179.5C 385.209,179.737 384.209,179.404 383.5,178.5C 383.5,177.833 383.5,177.167 383.5,176.5 Z"/></g>
<g><path style="opacity:1" fill="#fa80bc" d="M 387.5,181.5 C 389.178,183.852 391.511,185.186 394.5,185.5C 397.293,189.089 396.293,191.089 391.5,191.5C 387.954,191.915 384.287,191.915 380.5,191.5C 380.5,190.5 380.5,189.5 380.5,188.5C 382.734,188.62 384.901,188.287 387,187.5C 388.257,187.15 388.591,186.483 388,185.5C 385.545,184.084 383.045,183.75 380.5,184.5C 379.3,183.469 377.966,182.635 376.5,182C 377.43,181.009 378.596,180.509 380,180.5C 382.462,181.159 384.962,181.493 387.5,181.5 Z"/></g>
<g><path style="opacity:0.988" fill="#dd8ec2" d="M 386.5,179.5 C 390.585,181.069 394.585,182.903 398.5,185C 401.288,186.719 403.621,188.885 405.5,191.5C 401.993,189.246 398.327,187.246 394.5,185.5C 391.511,185.186 389.178,183.852 387.5,181.5C 387.167,180.833 386.833,180.167 386.5,179.5 Z"/></g>
<g><path style="opacity:1" fill="#feedfa" d="M 369.5,179.5 C 370.5,180.167 371.5,180.833 372.5,181.5C 374.318,185.116 375.984,188.783 377.5,192.5C 377.5,193.833 377.5,195.167 377.5,196.5C 374.802,192.578 372.136,188.412 369.5,184C 370.413,182.586 370.413,181.086 369.5,179.5 Z"/></g>
<g><path style="opacity:1" fill="#f683bb" d="M 394.5,185.5 C 398.327,187.246 401.993,189.246 405.5,191.5C 406.074,194.321 407.408,196.654 409.5,198.5C 406.756,199.072 405.923,200.738 407,203.5C 409.669,203.347 412.503,203.68 415.5,204.5C 415.5,205.5 415.5,206.5 415.5,207.5C 414.167,207.5 412.833,207.5 411.5,207.5C 411.38,206.414 410.713,205.747 409.5,205.5C 402.801,209.048 399.467,207.048 399.5,199.5C 393.5,200.167 390.833,197.5 391.5,191.5C 396.293,191.089 397.293,189.089 394.5,185.5 Z"/></g>
<g><path style="opacity:1" fill="#f685b8" d="M 383.5,178.5 C 384.209,179.404 385.209,179.737 386.5,179.5C 386.833,180.167 387.167,180.833 387.5,181.5C 384.962,181.493 382.462,181.159 380,180.5C 378.596,180.509 377.43,181.009 376.5,182C 377.966,182.635 379.3,183.469 380.5,184.5C 383.045,183.75 385.545,184.084 388,185.5C 388.591,186.483 388.257,187.15 387,187.5C 384.901,188.287 382.734,188.62 380.5,188.5C 380.5,189.5 380.5,190.5 380.5,191.5C 384.287,191.915 387.954,191.915 391.5,191.5C 390.833,197.5 393.5,200.167 399.5,199.5C 399.467,207.048 402.801,209.048 409.5,205.5C 410.713,205.747 411.38,206.414 411.5,207.5C 410.722,208.156 410.056,208.989 409.5,210C 410.812,212.151 412.645,213.651 415,214.5C 415.494,216.134 415.66,217.801 415.5,219.5C 416.833,219.5 418.167,219.5 419.5,219.5C 419.884,221.929 420.551,224.263 421.5,226.5C 421.565,226.938 421.399,227.272 421,227.5C 420,226.833 419,226.167 418,225.5C 416.477,227.569 415.643,229.903 415.5,232.5C 421.706,231.711 424.706,234.378 424.5,240.5C 423.504,240.586 422.671,240.252 422,239.5C 421.272,235.939 419.106,233.939 415.5,233.5C 408.559,229.927 401.559,226.594 394.5,223.5C 394.029,222.099 393.362,220.766 392.5,219.5C 389.63,218.878 386.796,218.211 384,217.5C 383.821,213.975 383.321,210.641 382.5,207.5C 382.665,204.15 382.498,200.817 382,197.5C 379.822,194.137 378.322,190.471 377.5,186.5C 376.039,184.53 374.373,182.863 372.5,181.5C 372.714,179.856 372.38,178.356 371.5,177C 375.642,176.675 379.642,177.175 383.5,178.5 Z"/></g>
<g><path style="opacity:1" fill="#e593b9" d="M 372.5,181.5 C 374.373,182.863 376.039,184.53 377.5,186.5C 378.322,190.471 379.822,194.137 382,197.5C 382.498,200.817 382.665,204.15 382.5,207.5C 382.167,207.5 381.833,207.5 381.5,207.5C 381.795,205.265 381.461,203.265 380.5,201.5C 380.31,198.145 379.31,195.145 377.5,192.5C 375.984,188.783 374.318,185.116 372.5,181.5 Z"/></g>
<g><path style="opacity:1" fill="#fdd7ef" d="M 377.5,192.5 C 379.31,195.145 380.31,198.145 380.5,201.5C 379.5,200.167 378.5,198.833 377.5,197.5C 377.5,197.167 377.5,196.833 377.5,196.5C 377.5,195.167 377.5,193.833 377.5,192.5 Z"/></g>
<g><path style="opacity:1" fill="#e28cc2" d="M 405.5,191.5 C 407.027,191.427 408.027,192.094 408.5,193.5C 409.833,195.833 411.167,198.167 412.5,200.5C 411.5,199.833 410.5,199.167 409.5,198.5C 407.408,196.654 406.074,194.321 405.5,191.5 Z"/></g>
<g><path style="opacity:0.761" fill="#bc92c0" d="M 408.5,193.5 C 409.833,194.5 411.167,195.5 412.5,196.5C 413.906,196.973 414.573,197.973 414.5,199.5C 414.5,200.167 414.5,200.833 414.5,201.5C 413.833,201.167 413.167,200.833 412.5,200.5C 411.167,198.167 409.833,195.833 408.5,193.5 Z"/></g>
<g><path style="opacity:0.997" fill="#d88dc3" d="M 412.5,200.5 C 413.167,200.833 413.833,201.167 414.5,201.5C 420.478,201.42 426.145,202.42 431.5,204.5C 427.5,204.167 423.5,203.833 419.5,203.5C 417.473,203.662 415.473,203.495 413.5,203C 412.748,202.329 412.414,201.496 412.5,200.5 Z"/></g>
<g><path style="opacity:1" fill="#e788c6" d="M 419.5,203.5 C 423.5,203.833 427.5,204.167 431.5,204.5C 433.261,205.313 434.928,206.313 436.5,207.5C 430.545,206.95 424.878,205.616 419.5,203.5 Z"/></g>
<g><path style="opacity:1" fill="#fceaf7" d="M 377.5,197.5 C 378.5,198.833 379.5,200.167 380.5,201.5C 381.461,203.265 381.795,205.265 381.5,207.5C 381.08,212.512 380.913,217.512 381,222.5C 387.585,223.418 393.751,225.418 399.5,228.5C 395.738,228.348 392.072,227.681 388.5,226.5C 387.707,226.931 386.873,227.265 386,227.5C 384.174,226.99 384.007,226.156 385.5,225C 383.423,224.808 381.423,224.308 379.5,223.5C 379.389,216.567 379.223,209.567 379,202.5C 377.991,200.975 377.491,199.308 377.5,197.5 Z"/></g>
<g><path style="opacity:1" fill="#f781be" d="M 409.5,198.5 C 410.5,199.167 411.5,199.833 412.5,200.5C 412.414,201.496 412.748,202.329 413.5,203C 415.473,203.495 417.473,203.662 419.5,203.5C 424.878,205.616 430.545,206.95 436.5,207.5C 437.167,207.5 437.833,207.5 438.5,207.5C 440.415,210.961 443.415,212.628 447.5,212.5C 447.5,212.833 447.5,213.167 447.5,213.5C 444.552,213.324 441.886,213.324 439.5,213.5C 440.313,214.814 441.313,215.981 442.5,217C 446.313,217.441 449.313,219.107 451.5,222C 451.333,222.5 451.167,223 451,223.5C 450.692,222.692 450.192,222.025 449.5,221.5C 448.12,222.976 446.453,223.976 444.5,224.5C 443.614,225.325 443.281,226.325 443.5,227.5C 452.167,229.5 457.5,234.833 459.5,243.5C 460.5,243.5 461.5,243.5 462.5,243.5C 462.325,240.671 463.658,239.004 466.5,238.5C 465.41,237.391 465.41,236.391 466.5,235.5C 467.429,236.689 467.762,238.022 467.5,239.5C 467.757,242.932 468.424,246.266 469.5,249.5C 471.57,249.449 473.403,250.115 475,251.5C 475.95,250.978 476.784,250.311 477.5,249.5C 478.641,251.421 478.808,253.421 478,255.5C 476.294,256.308 475.461,257.641 475.5,259.5C 476.822,259.33 477.989,259.663 479,260.5C 480.441,264.766 482.608,268.433 485.5,271.5C 485.833,271.5 486.167,271.5 486.5,271.5C 486.5,273.833 486.5,276.167 486.5,278.5C 486.963,281.482 487.296,284.482 487.5,287.5C 484.5,287.833 483.167,286.5 483.5,283.5C 474.833,281.5 469.5,276.167 467.5,267.5C 463.932,266.715 460.599,265.382 457.5,263.5C 454.45,260.067 452.45,256.067 451.5,251.5C 450.167,251.5 448.833,251.5 447.5,251.5C 447.62,248.795 446.62,248.128 444.5,249.5C 442.317,247.15 439.984,244.983 437.5,243C 438.973,242.29 439.64,241.124 439.5,239.5C 438.167,239.5 436.833,239.5 435.5,239.5C 435.5,238.167 435.5,236.833 435.5,235.5C 434.167,235.5 432.833,235.5 431.5,235.5C 432.135,231.538 430.802,230.205 427.5,231.5C 425.217,230.029 423.217,228.362 421.5,226.5C 420.551,224.263 419.884,221.929 419.5,219.5C 418.167,219.5 416.833,219.5 415.5,219.5C 415.66,217.801 415.494,216.134 415,214.5C 412.645,213.651 410.812,212.151 409.5,210C 410.056,208.989 410.722,208.156 411.5,207.5C 412.833,207.5 414.167,207.5 415.5,207.5C 415.5,206.5 415.5,205.5 415.5,204.5C 412.503,203.68 409.669,203.347 407,203.5C 405.923,200.738 406.756,199.072 409.5,198.5 Z"/></g>
<g><path style="opacity:0.278" fill="#ab93bf" d="M 414.5,199.5 C 433.348,200.929 449.348,208.262 462.5,221.5C 459.755,219.432 456.755,217.766 453.5,216.5C 451.853,214.674 449.853,213.34 447.5,212.5C 444.78,210.473 441.78,208.807 438.5,207.5C 437.833,207.5 437.167,207.5 436.5,207.5C 434.928,206.313 433.261,205.313 431.5,204.5C 426.145,202.42 420.478,201.42 414.5,201.5C 414.5,200.833 414.5,200.167 414.5,199.5 Z"/></g>
<g><path style="opacity:1" fill="#db8bc5" d="M 438.5,207.5 C 441.78,208.807 444.78,210.473 447.5,212.5C 443.415,212.628 440.415,210.961 438.5,207.5 Z"/></g>
<g><path style="opacity:1" fill="#e387c5" d="M 447.5,212.5 C 449.853,213.34 451.853,214.674 453.5,216.5C 453.833,217.167 454.167,217.833 454.5,218.5C 451.63,217.567 449.296,215.9 447.5,213.5C 447.5,213.167 447.5,212.833 447.5,212.5 Z"/></g>
<g><path style="opacity:0.867" fill="#d18cc5" d="M 453.5,216.5 C 456.755,217.766 459.755,219.432 462.5,221.5C 462.5,222.167 462.5,222.833 462.5,223.5C 459.888,222.221 457.555,220.555 455.5,218.5C 455.167,218.5 454.833,218.5 454.5,218.5C 454.167,217.833 453.833,217.167 453.5,216.5 Z"/></g>
<g><path style="opacity:1" fill="#f08bb5" d="M 382.5,207.5 C 383.321,210.641 383.821,213.975 384,217.5C 386.796,218.211 389.63,218.878 392.5,219.5C 393.362,220.766 394.029,222.099 394.5,223.5C 390.548,222.728 386.548,222.395 382.5,222.5C 382.5,217.5 382.5,212.5 382.5,207.5 Z"/></g>
<g><path style="opacity:1" fill="#f77ec3" d="M 447.5,213.5 C 449.296,215.9 451.63,217.567 454.5,218.5C 454.833,218.5 455.167,218.5 455.5,218.5C 456.455,221.456 458.455,223.456 461.5,224.5C 462.298,226.078 462.798,227.744 463,229.5C 465.905,230.574 468.405,232.241 470.5,234.5C 471.975,238 472.975,241.667 473.5,245.5C 472.448,245.649 471.448,245.483 470.5,245C 470.12,242.674 469.12,240.841 467.5,239.5C 467.762,238.022 467.429,236.689 466.5,235.5C 465.41,236.391 465.41,237.391 466.5,238.5C 463.658,239.004 462.325,240.671 462.5,243.5C 461.5,243.5 460.5,243.5 459.5,243.5C 457.5,234.833 452.167,229.5 443.5,227.5C 443.281,226.325 443.614,225.325 444.5,224.5C 446.453,223.976 448.12,222.976 449.5,221.5C 450.192,222.025 450.692,222.692 451,223.5C 451.167,223 451.333,222.5 451.5,222C 449.313,219.107 446.313,217.441 442.5,217C 441.313,215.981 440.313,214.814 439.5,213.5C 441.886,213.324 444.552,213.324 447.5,213.5 Z"/></g>
<g><path style="opacity:0.498" fill="#b9d3e1" d="M 99.5,216.5 C 100.461,218.265 100.795,220.265 100.5,222.5C 97.0381,223.482 93.3714,223.815 89.5,223.5C 89.5,223.167 89.5,222.833 89.5,222.5C 92.2869,221.523 95.2869,221.19 98.5,221.5C 99.4511,220.081 99.7845,218.415 99.5,216.5 Z"/></g>
<g><path style="opacity:0.098" fill="#98b5c6" d="M 89.5,222.5 C 89.5,222.833 89.5,223.167 89.5,223.5C 88.8333,223.5 88.1667,223.5 87.5,223.5C 80.1327,224.314 72.7994,225.314 65.5,226.5C 73.1471,223.774 81.1471,222.441 89.5,222.5 Z"/></g>
<g><path style="opacity:0.976" fill="#effafc" d="M 87.5,223.5 C 87.6495,224.552 87.4828,225.552 87,226.5C 86.0862,225.346 85.2529,225.513 84.5,227C 77.7843,227.679 71.1176,228.679 64.5,230C 60.0195,231.052 55.8528,232.885 52,235.5C 50.5603,234.852 49.0603,234.519 47.5,234.5C 53.4167,231.639 59.4167,228.972 65.5,226.5C 72.7994,225.314 80.1327,224.314 87.5,223.5 Z"/></g>
<g><path style="opacity:1" fill="#f983ba" d="M 421.5,226.5 C 423.217,228.362 425.217,230.029 427.5,231.5C 430.802,230.205 432.135,231.538 431.5,235.5C 432.833,235.5 434.167,235.5 435.5,235.5C 435.5,236.833 435.5,238.167 435.5,239.5C 436.833,239.5 438.167,239.5 439.5,239.5C 439.64,241.124 438.973,242.29 437.5,243C 439.984,244.983 442.317,247.15 444.5,249.5C 446.62,248.128 447.62,248.795 447.5,251.5C 448.833,251.5 450.167,251.5 451.5,251.5C 452.45,256.067 454.45,260.067 457.5,263.5C 455.167,263.5 452.833,263.5 450.5,263.5C 450.5,260.833 450.5,258.167 450.5,255.5C 446.985,255.288 443.652,255.288 440.5,255.5C 438.923,253.051 436.923,251.051 434.5,249.5C 433.167,249.167 431.833,248.833 430.5,248.5C 429.068,246.673 427.401,245.006 425.5,243.5C 424.873,242.583 424.539,241.583 424.5,240.5C 424.706,234.378 421.706,231.711 415.5,232.5C 415.643,229.903 416.477,227.569 418,225.5C 419,226.167 420,226.833 421,227.5C 421.399,227.272 421.565,226.938 421.5,226.5 Z"/></g>
<g><path style="opacity:0.329" fill="#a993c1" d="M 462.5,221.5 C 465.903,223.9 468.57,226.9 470.5,230.5C 468.167,228.5 465.833,226.5 463.5,224.5C 463.5,223.833 463.167,223.5 462.5,223.5C 462.5,222.833 462.5,222.167 462.5,221.5 Z"/></g>
<g><path style="opacity:0.878" fill="#ce8ec7" d="M 463.5,224.5 C 465.833,226.5 468.167,228.5 470.5,230.5C 470.5,231.167 470.5,231.833 470.5,232.5C 467.427,230.431 465.094,227.764 463.5,224.5 Z"/></g>
<g><path style="opacity:1" fill="#ea83c6" d="M 455.5,218.5 C 457.555,220.555 459.888,222.221 462.5,223.5C 463.167,223.5 463.5,223.833 463.5,224.5C 465.094,227.764 467.427,230.431 470.5,232.5C 470.5,233.167 470.5,233.833 470.5,234.5C 468.405,232.241 465.905,230.574 463,229.5C 462.798,227.744 462.298,226.078 461.5,224.5C 458.455,223.456 456.455,221.456 455.5,218.5 Z"/></g>
<g><path style="opacity:1" fill="#e8a3c2" d="M 381.5,207.5 C 381.833,207.5 382.167,207.5 382.5,207.5C 382.5,212.5 382.5,217.5 382.5,222.5C 386.548,222.395 390.548,222.728 394.5,223.5C 401.559,226.594 408.559,229.927 415.5,233.5C 416.833,235.5 418.167,237.5 419.5,239.5C 417.596,239.262 416.262,238.262 415.5,236.5C 415.027,235.094 414.027,234.427 412.5,234.5C 408.317,232.243 403.984,230.243 399.5,228.5C 393.751,225.418 387.585,223.418 381,222.5C 380.913,217.512 381.08,212.512 381.5,207.5 Z"/></g>
<g><path style="opacity:0.078" fill="#99b8c6" d="M 65.5,226.5 C 59.4167,228.972 53.4167,231.639 47.5,234.5C 45.8828,235.038 44.2161,235.371 42.5,235.5C 49.5498,231.146 57.2165,228.146 65.5,226.5 Z"/></g>
<g><path style="opacity:0.655" fill="#b392c2" d="M 470.5,230.5 C 473.241,232.975 475.241,235.975 476.5,239.5C 475.833,239.167 475.167,238.833 474.5,238.5C 473.527,236.861 472.194,235.527 470.5,234.5C 470.5,233.833 470.5,233.167 470.5,232.5C 470.5,231.833 470.5,231.167 470.5,230.5 Z"/></g>
<g><path style="opacity:1" fill="#f1b9d2" d="M 412.5,234.5 C 414.027,234.427 415.027,235.094 415.5,236.5C 413.973,236.573 412.973,235.906 412.5,234.5 Z"/></g>
<g><path style="opacity:0.978" fill="#edf9fc" d="M 47.5,234.5 C 43.0223,237.9 38.689,241.733 34.5,246C 32.3225,247.202 29.9892,247.702 27.5,247.5C 32.3175,243.26 37.3175,239.26 42.5,235.5C 44.2161,235.371 45.8828,235.038 47.5,234.5 Z"/></g>
<g><path style="opacity:1" fill="#feeefb" d="M 399.5,228.5 C 403.984,230.243 408.317,232.243 412.5,234.5C 412.973,235.906 413.973,236.573 415.5,236.5C 416.262,238.262 417.596,239.262 419.5,239.5C 422.177,241.845 424.51,244.512 426.5,247.5C 426.5,248.167 426.5,248.833 426.5,249.5C 423.327,247.159 420.66,244.326 418.5,241C 416.306,238.825 413.639,237.492 410.5,237C 406.765,234.147 403.098,231.313 399.5,228.5 Z"/></g>
<g><path style="opacity:0.518" fill="#ad95bf" d="M 476.5,239.5 C 477.674,240.514 478.34,241.847 478.5,243.5C 476.824,242.817 476.157,241.483 476.5,239.5 Z"/></g>
<g><path style="opacity:0.894" fill="#d18fc6" d="M 474.5,238.5 C 475.167,238.833 475.833,239.167 476.5,239.5C 476.157,241.483 476.824,242.817 478.5,243.5C 478.5,244.5 478.5,245.5 478.5,246.5C 477.504,246.586 476.671,246.252 476,245.5C 475.023,243.26 474.523,240.927 474.5,238.5 Z"/></g>
<g><path style="opacity:0.4" fill="#b392c0" d="M 478.5,243.5 C 483.596,252.115 486.929,261.448 488.5,271.5C 488.5,273.5 488.5,275.5 488.5,277.5C 487.833,275.5 487.167,273.5 486.5,271.5C 485.407,263.622 483.074,256.289 479.5,249.5C 479.443,248.391 479.11,247.391 478.5,246.5C 478.5,245.5 478.5,244.5 478.5,243.5 Z"/></g>
<g><path style="opacity:1" fill="#f6c8dd" d="M 426.5,247.5 C 428.914,248.911 430.581,250.911 431.5,253.5C 429.833,252.167 428.167,250.833 426.5,249.5C 426.5,248.833 426.5,248.167 426.5,247.5 Z"/></g>
<g><path style="opacity:0.982" fill="#edfafc" d="M 27.5,247.5 C 27.5168,250.991 26.0168,253.658 23,255.5C 22.3828,256.449 22.5494,257.282 23.5,258C 21.6992,258.317 21.3659,258.984 22.5,260C 20.4234,261.705 18.09,262.872 15.5,263.5C 18.3529,257.313 22.3529,251.979 27.5,247.5 Z"/></g>
<g><path style="opacity:1" fill="#f884b8" d="M 434.5,249.5 C 436.923,251.051 438.923,253.051 440.5,255.5C 443.652,255.288 446.985,255.288 450.5,255.5C 450.5,258.167 450.5,260.833 450.5,263.5C 452.833,263.5 455.167,263.5 457.5,263.5C 460.599,265.382 463.932,266.715 467.5,267.5C 469.5,276.167 474.833,281.5 483.5,283.5C 483.167,286.5 484.5,287.833 487.5,287.5C 488.692,300.852 488.692,314.186 487.5,327.5C 487.167,327.5 486.833,327.5 486.5,327.5C 486.5,324.833 486.5,322.167 486.5,319.5C 485.5,319.5 484.5,319.5 483.5,319.5C 482.66,315.139 481.66,310.805 480.5,306.5C 478.782,312.728 476.115,313.061 472.5,307.5C 470.942,312.694 469.942,312.694 469.5,307.5C 466.988,307.577 464.988,306.577 463.5,304.5C 466.768,303.513 470.102,303.18 473.5,303.5C 471.793,297.464 467.793,293.798 461.5,292.5C 458.714,290.158 457.047,287.158 456.5,283.5C 454.347,280.662 451.68,278.662 448.5,277.5C 449.069,281.329 448.402,284.663 446.5,287.5C 446.167,287.5 445.833,287.5 445.5,287.5C 445.5,287.167 445.5,286.833 445.5,286.5C 445.397,280.139 444.897,273.806 444,267.5C 440.049,261.836 436.882,255.836 434.5,249.5 Z"/></g>
<g><path style="opacity:1" fill="#f281c2" d="M 470.5,234.5 C 472.194,235.527 473.527,236.861 474.5,238.5C 474.523,240.927 475.023,243.26 476,245.5C 476.671,246.252 477.504,246.586 478.5,246.5C 479.11,247.391 479.443,248.391 479.5,249.5C 480.493,257.172 482.493,264.505 485.5,271.5C 482.608,268.433 480.441,264.766 479,260.5C 477.989,259.663 476.822,259.33 475.5,259.5C 475.461,257.641 476.294,256.308 478,255.5C 478.808,253.421 478.641,251.421 477.5,249.5C 476.784,250.311 475.95,250.978 475,251.5C 473.403,250.115 471.57,249.449 469.5,249.5C 468.424,246.266 467.757,242.932 467.5,239.5C 469.12,240.841 470.12,242.674 470.5,245C 471.448,245.483 472.448,245.649 473.5,245.5C 472.975,241.667 471.975,238 470.5,234.5 Z"/></g>
<g><path style="opacity:1" fill="#df8bc6" d="M 479.5,249.5 C 483.074,256.289 485.407,263.622 486.5,271.5C 486.167,271.5 485.833,271.5 485.5,271.5C 482.493,264.505 480.493,257.172 479.5,249.5 Z"/></g>
<g><path style="opacity:1" fill="#e397b9" d="M 415.5,233.5 C 419.106,233.939 421.272,235.939 422,239.5C 422.671,240.252 423.504,240.586 424.5,240.5C 424.539,241.583 424.873,242.583 425.5,243.5C 427.401,245.006 429.068,246.673 430.5,248.5C 436.708,257.255 441.041,266.921 443.5,277.5C 442.833,277.167 442.167,276.833 441.5,276.5C 441.598,274.447 440.931,272.78 439.5,271.5C 438.499,266.499 436.665,261.832 434,257.5C 433.292,256.619 432.458,255.953 431.5,255.5C 431.5,254.833 431.5,254.167 431.5,253.5C 430.581,250.911 428.914,248.911 426.5,247.5C 424.51,244.512 422.177,241.845 419.5,239.5C 418.167,237.5 416.833,235.5 415.5,233.5 Z"/></g>
<g><path style="opacity:1" fill="#f289b6" d="M 430.5,248.5 C 431.833,248.833 433.167,249.167 434.5,249.5C 436.882,255.836 440.049,261.836 444,267.5C 444.897,273.806 445.397,280.139 445.5,286.5C 444.087,283.781 443.42,280.781 443.5,277.5C 441.041,266.921 436.708,257.255 430.5,248.5 Z"/></g>
<g><path style="opacity:0.921" fill="#e4f3f9" d="M 15.5,263.5 C 15.7128,266.451 15.0461,269.118 13.5,271.5C 9.28521,283.418 7.61855,295.752 8.5,308.5C 8.16667,308.5 7.83333,308.5 7.5,308.5C 6.42804,295.17 7.92804,282.17 12,269.5C 12.941,267.273 14.1077,265.273 15.5,263.5 Z"/></g>
<g><path style="opacity:0.987" fill="#f3fdfd" d="M 13.5,271.5 C 14.1239,271.917 14.4573,272.584 14.5,273.5C 10.8956,281.136 9.89557,289.136 11.5,297.5C 10.7406,301.482 10.0739,305.482 9.5,309.5C 11.03,318.813 13.6967,327.646 17.5,336C 16.944,336.383 16.6107,336.883 16.5,337.5C 12.0786,328.434 9.41197,318.767 8.5,308.5C 7.61855,295.752 9.28521,283.418 13.5,271.5 Z"/></g>
<g><path style="opacity:0.035" fill="#8facbc" d="M 42.5,235.5 C 37.3175,239.26 32.3175,243.26 27.5,247.5C 22.3529,251.979 18.3529,257.313 15.5,263.5C 14.1077,265.273 12.941,267.273 12,269.5C 7.92804,282.17 6.42804,295.17 7.5,308.5C 2.27752,281.003 10.6109,258.503 32.5,241C 35.7271,238.888 39.0604,237.055 42.5,235.5 Z"/></g>
<g><path style="opacity:1" fill="#facee4" d="M 439.5,271.5 C 440.931,272.78 441.598,274.447 441.5,276.5C 441.5,276.833 441.5,277.167 441.5,277.5C 439.926,275.898 439.259,273.898 439.5,271.5 Z"/></g>
<g><path style="opacity:1" fill="#f887b3" d="M 486.5,327.5 C 486.665,331.182 486.499,334.848 486,338.5C 485.363,336.697 484.197,335.364 482.5,334.5C 481.692,332.577 481.192,330.577 481,328.5C 479.428,329.081 477.595,329.081 475.5,328.5C 472.218,326.242 470.218,323.242 469.5,319.5C 467.5,319.5 465.5,319.5 463.5,319.5C 463.5,317.5 463.5,315.5 463.5,313.5C 459.758,312.782 456.758,310.782 454.5,307.5C 453.571,306.311 453.238,304.978 453.5,303.5C 451.833,303.5 450.167,303.5 448.5,303.5C 448.556,298.269 447.889,293.269 446.5,288.5C 446.5,288.167 446.5,287.833 446.5,287.5C 448.402,284.663 449.069,281.329 448.5,277.5C 451.68,278.662 454.347,280.662 456.5,283.5C 457.047,287.158 458.714,290.158 461.5,292.5C 467.793,293.798 471.793,297.464 473.5,303.5C 470.102,303.18 466.768,303.513 463.5,304.5C 464.988,306.577 466.988,307.577 469.5,307.5C 469.942,312.694 470.942,312.694 472.5,307.5C 476.115,313.061 478.782,312.728 480.5,306.5C 481.66,310.805 482.66,315.139 483.5,319.5C 484.5,319.5 485.5,319.5 486.5,319.5C 486.5,322.167 486.5,324.833 486.5,327.5 Z"/></g>
<g><path style="opacity:0.925" fill="#db90c1" d="M 486.5,271.5 C 487.167,273.5 487.833,275.5 488.5,277.5C 489.167,281.167 489.833,284.833 490.5,288.5C 490.828,300.678 490.495,312.678 489.5,324.5C 489.667,312.495 489.5,300.495 489,288.5C 488.851,284.867 488.018,281.534 486.5,278.5C 486.5,276.167 486.5,273.833 486.5,271.5 Z"/></g>
<g><path style="opacity:1" fill="#f78ab0" d="M 446.5,288.5 C 447.889,293.269 448.556,298.269 448.5,303.5C 450.167,303.5 451.833,303.5 453.5,303.5C 453.238,304.978 453.571,306.311 454.5,307.5C 456.758,310.782 459.758,312.782 463.5,313.5C 463.5,315.5 463.5,317.5 463.5,319.5C 465.5,319.5 467.5,319.5 469.5,319.5C 470.218,323.242 472.218,326.242 475.5,328.5C 477.595,329.081 479.428,329.081 481,328.5C 481.192,330.577 481.692,332.577 482.5,334.5C 484.197,335.364 485.363,336.697 486,338.5C 486.499,334.848 486.665,331.182 486.5,327.5C 486.833,327.5 487.167,327.5 487.5,327.5C 487.5,328.167 487.5,328.833 487.5,329.5C 487.5,333.167 487.5,336.833 487.5,340.5C 485.78,343.889 485.113,347.556 485.5,351.5C 485.167,351.5 484.833,351.5 484.5,351.5C 483.833,351.5 483.167,351.5 482.5,351.5C 481.791,350.596 480.791,350.263 479.5,350.5C 481.02,347.641 480.353,345.307 477.5,343.5C 476.719,344.729 476.219,346.062 476,347.5C 475.355,346.354 474.522,345.354 473.5,344.5C 475.807,342.672 475.474,341.006 472.5,339.5C 471.285,336.191 470.285,332.858 469.5,329.5C 466.564,328.594 463.564,327.928 460.5,327.5C 460.865,332.421 459.865,332.755 457.5,328.5C 459.807,326.672 459.474,325.006 456.5,323.5C 455.285,320.191 454.285,316.858 453.5,313.5C 451.508,313.672 449.842,313.005 448.5,311.5C 447.832,314.306 447.166,316.972 446.5,319.5C 447.713,309.162 447.713,298.829 446.5,288.5 Z"/></g>
<g><path style="opacity:1" fill="#df9ab3" d="M 441.5,276.5 C 442.167,276.833 442.833,277.167 443.5,277.5C 443.42,280.781 444.087,283.781 445.5,286.5C 445.5,286.833 445.5,287.167 445.5,287.5C 445.5,298.167 445.5,308.833 445.5,319.5C 444.549,320.919 444.216,322.585 444.5,324.5C 443.833,325.5 443.167,326.5 442.5,327.5C 445.412,310.73 445.079,294.063 441.5,277.5C 441.5,277.167 441.5,276.833 441.5,276.5 Z"/></g>
<g><path style="opacity:1" fill="#fee9f4" d="M 431.5,255.5 C 432.458,255.953 433.292,256.619 434,257.5C 436.665,261.832 438.499,266.499 439.5,271.5C 439.259,273.898 439.926,275.898 441.5,277.5C 445.079,294.063 445.412,310.73 442.5,327.5C 440.926,329.102 440.259,331.102 440.5,333.5C 439.797,335.629 438.797,337.629 437.5,339.5C 437.711,334.543 438.878,329.876 441,325.5C 442.203,315.937 442.703,306.437 442.5,297C 442.333,295.833 442.167,294.667 442,293.5C 441.346,294.696 440.846,294.696 440.5,293.5C 441.575,290.562 441.741,287.562 441,284.5C 439.046,278.974 437.713,273.307 437,267.5C 434.868,263.587 433.034,259.587 431.5,255.5 Z"/></g>
<g><path style="opacity:0.188" fill="#a095ba" d="M 488.5,271.5 C 494.545,294.772 494.879,318.106 489.5,341.5C 489.724,337.821 490.058,334.154 490.5,330.5C 491.789,316.36 491.789,302.36 490.5,288.5C 489.833,284.833 489.167,281.167 488.5,277.5C 488.5,275.5 488.5,273.5 488.5,271.5 Z"/></g>
<g><path style="opacity:1" fill="#ea8faf" d="M 445.5,287.5 C 445.833,287.5 446.167,287.5 446.5,287.5C 446.5,287.833 446.5,288.167 446.5,288.5C 447.713,298.829 447.713,309.162 446.5,319.5C 446.167,319.5 445.833,319.5 445.5,319.5C 445.5,308.833 445.5,298.167 445.5,287.5 Z"/></g>
<g><path style="opacity:0.71" fill="#c995bf" d="M 490.5,288.5 C 491.789,302.36 491.789,316.36 490.5,330.5C 490.167,330.5 489.833,330.5 489.5,330.5C 489.5,329.167 489.5,327.833 489.5,326.5C 489.5,325.833 489.5,325.167 489.5,324.5C 490.495,312.678 490.828,300.678 490.5,288.5 Z"/></g>
<g><path style="opacity:1" fill="#f88dac" d="M 482.5,351.5 C 482.167,351.5 481.833,351.5 481.5,351.5C 480.504,351.414 479.671,351.748 479,352.5C 478.71,354.044 478.044,355.377 477,356.5C 475.57,356.306 474.07,356.306 472.5,356.5C 471.756,355.009 471.09,353.509 470.5,352C 467.447,351.821 464.447,351.321 461.5,350.5C 456.112,345.615 451.279,340.282 447,334.5C 446.667,334.833 446.333,335.167 446,335.5C 445.501,330.177 445.334,324.844 445.5,319.5C 445.833,319.5 446.167,319.5 446.5,319.5C 447.166,316.972 447.832,314.306 448.5,311.5C 449.842,313.005 451.508,313.672 453.5,313.5C 454.285,316.858 455.285,320.191 456.5,323.5C 459.474,325.006 459.807,326.672 457.5,328.5C 459.865,332.755 460.865,332.421 460.5,327.5C 463.564,327.928 466.564,328.594 469.5,329.5C 470.285,332.858 471.285,336.191 472.5,339.5C 475.474,341.006 475.807,342.672 473.5,344.5C 474.522,345.354 475.355,346.354 476,347.5C 476.219,346.062 476.719,344.729 477.5,343.5C 480.353,345.307 481.02,347.641 479.5,350.5C 480.791,350.263 481.791,350.596 482.5,351.5 Z"/></g>
<g><path style="opacity:1" fill="#ec88bb" d="M 486.5,278.5 C 488.018,281.534 488.851,284.867 489,288.5C 489.5,300.495 489.667,312.495 489.5,324.5C 489.5,325.167 489.5,325.833 489.5,326.5C 488.833,327.5 488.167,328.5 487.5,329.5C 487.5,328.833 487.5,328.167 487.5,327.5C 488.692,314.186 488.692,300.852 487.5,287.5C 487.296,284.482 486.963,281.482 486.5,278.5 Z"/></g>
<g><path style="opacity:0.098" fill="#96b4c3" d="M 7.5,308.5 C 7.83333,308.5 8.16667,308.5 8.5,308.5C 9.41197,318.767 12.0786,328.434 16.5,337.5C 16.5,337.833 16.5,338.167 16.5,338.5C 17.4408,340.05 18.1075,341.716 18.5,343.5C 11.6124,332.98 7.94576,321.314 7.5,308.5 Z"/></g>
<g><path style="opacity:0.991" fill="#df94bd" d="M 489.5,326.5 C 489.5,327.833 489.5,329.167 489.5,330.5C 488.903,333.941 488.237,337.275 487.5,340.5C 487.5,336.833 487.5,333.167 487.5,329.5C 488.167,328.5 488.833,327.5 489.5,326.5 Z"/></g>
<g><path style="opacity:1" fill="#eeb9c8" d="M 442.5,327.5 C 442.741,329.898 442.074,331.898 440.5,333.5C 440.259,331.102 440.926,329.102 442.5,327.5 Z"/></g>
<g><path style="opacity:1" fill="#e895ab" d="M 444.5,324.5 C 444.665,327.85 444.498,331.183 444,334.5C 441.863,336.321 441.03,338.654 441.5,341.5C 441.167,341.5 440.833,341.5 440.5,341.5C 440.167,341.5 439.833,341.5 439.5,341.5C 440.265,338.904 440.599,336.237 440.5,333.5C 442.074,331.898 442.741,329.898 442.5,327.5C 443.167,326.5 443.833,325.5 444.5,324.5 Z"/></g>
<g><path style="opacity:1" fill="#f98ea8" d="M 445.5,319.5 C 445.334,324.844 445.501,330.177 446,335.5C 446.333,335.167 446.667,334.833 447,334.5C 451.279,340.282 456.112,345.615 461.5,350.5C 464.447,351.321 467.447,351.821 470.5,352C 471.09,353.509 471.756,355.009 472.5,356.5C 474.07,356.306 475.57,356.306 477,356.5C 478.044,355.377 478.71,354.044 479,352.5C 479.671,351.748 480.504,351.414 481.5,351.5C 482.052,357.033 479.886,361.033 475,363.5C 474.678,366.666 473.511,369.333 471.5,371.5C 471.192,367.991 469.192,366.324 465.5,366.5C 465.5,363.5 465.5,360.5 465.5,357.5C 460.555,358.324 457.888,356.324 457.5,351.5C 453.5,351.5 449.5,351.5 445.5,351.5C 445.813,348.753 445.48,346.086 444.5,343.5C 443.735,342.388 442.735,341.721 441.5,341.5C 441.03,338.654 441.863,336.321 444,334.5C 444.498,331.183 444.665,327.85 444.5,324.5C 444.216,322.585 444.549,320.919 445.5,319.5 Z"/></g>
<g><path style="opacity:0.365" fill="#c198bc" d="M 489.5,330.5 C 489.833,330.5 490.167,330.5 490.5,330.5C 490.058,334.154 489.724,337.821 489.5,341.5C 487.32,344.381 486.32,347.714 486.5,351.5C 486.167,351.5 485.833,351.5 485.5,351.5C 485.113,347.556 485.78,343.889 487.5,340.5C 488.237,337.275 488.903,333.941 489.5,330.5 Z"/></g>
<g><path style="opacity:1" fill="#e9b3bf" d="M 440.5,333.5 C 440.599,336.237 440.265,338.904 439.5,341.5C 438.833,342.167 438.167,342.833 437.5,343.5C 437.5,342.833 437.5,342.167 437.5,341.5C 437.5,340.833 437.5,340.167 437.5,339.5C 438.797,337.629 439.797,335.629 440.5,333.5 Z"/></g>
<g><path style="opacity:0.98" fill="#ecf9fc" d="M 16.5,338.5 C 20.2506,341.747 23.9173,345.247 27.5,349C 27.1667,349.333 26.8333,349.667 26.5,350C 30.0067,351.33 31.6734,353.83 31.5,357.5C 26.4317,353.435 22.0984,348.768 18.5,343.5C 18.1075,341.716 17.4408,340.05 16.5,338.5 Z"/></g>
<g><path style="opacity:1" fill="#ffebf0" d="M 437.5,341.5 C 437.5,342.167 437.5,342.833 437.5,343.5C 435.24,346.362 433.24,349.362 431.5,352.5C 431.976,348.905 433.142,345.572 435,342.5C 435.671,341.748 436.504,341.414 437.5,341.5 Z"/></g>
<g><path style="opacity:1" fill="#f891a5" d="M 440.5,341.5 C 440.833,341.5 441.167,341.5 441.5,341.5C 442.735,341.721 443.735,342.388 444.5,343.5C 445.48,346.086 445.813,348.753 445.5,351.5C 449.5,351.5 453.5,351.5 457.5,351.5C 457.888,356.324 460.555,358.324 465.5,357.5C 465.5,360.5 465.5,363.5 465.5,366.5C 469.192,366.324 471.192,367.991 471.5,371.5C 471.5,372.5 471.5,373.5 471.5,374.5C 469.436,377.544 467.436,380.544 465.5,383.5C 465.5,382.167 465.5,380.833 465.5,379.5C 463.876,379.36 462.71,380.027 462,381.5C 454.667,373.5 447,365.833 439,358.5C 437.532,354.082 439.032,351.748 443.5,351.5C 443.833,348.5 442.5,347.167 439.5,347.5C 439.517,345.435 439.85,343.435 440.5,341.5 Z"/></g>
<g><path style="opacity:1" fill="#e7a5af" d="M 437.5,343.5 C 437.572,348.662 435.572,352.662 431.5,355.5C 431.5,354.833 431.5,354.167 431.5,353.5C 431.5,353.167 431.5,352.833 431.5,352.5C 433.24,349.362 435.24,346.362 437.5,343.5 Z"/></g>
<g><path style="opacity:0.235" fill="#94b0bb" d="M 18.5,343.5 C 22.0984,348.768 26.4317,353.435 31.5,357.5C 33.5491,360.55 36.2157,362.883 39.5,364.5C 40.6005,365.605 41.2671,366.938 41.5,368.5C 34.9237,363.43 28.757,357.763 23,351.5C 21.2226,348.941 19.7226,346.274 18.5,343.5 Z"/></g>
<g><path style="opacity:0.043" fill="#999bb4" d="M 489.5,341.5 C 489.101,345.116 488.101,348.45 486.5,351.5C 486.32,347.714 487.32,344.381 489.5,341.5 Z"/></g>
<g><path style="opacity:0.122" fill="#a09abd" d="M 484.5,351.5 C 484.833,351.5 485.167,351.5 485.5,351.5C 485.833,351.5 486.167,351.5 486.5,351.5C 486.405,353.786 485.738,355.786 484.5,357.5C 484.5,355.5 484.5,353.5 484.5,351.5 Z"/></g>
<g><path style="opacity:1" fill="#f5c8ce" d="M 431.5,353.5 C 431.5,354.167 431.5,354.833 431.5,355.5C 430.167,356.5 428.833,357.5 427.5,358.5C 428.08,356.251 429.413,354.585 431.5,353.5 Z"/></g>
<g><path style="opacity:0.404" fill="#c699ba" d="M 482.5,351.5 C 483.167,351.5 483.833,351.5 484.5,351.5C 484.5,353.5 484.5,355.5 484.5,357.5C 483.407,359.349 482.074,361.016 480.5,362.5C 481.919,358.985 482.586,355.319 482.5,351.5 Z"/></g>
<g><path style="opacity:1" fill="#f793a1" d="M 439.5,347.5 C 442.5,347.167 443.833,348.5 443.5,351.5C 439.032,351.748 437.532,354.082 439,358.5C 447,365.833 454.667,373.5 462,381.5C 462.71,380.027 463.876,379.36 465.5,379.5C 465.5,380.833 465.5,382.167 465.5,383.5C 462.135,386.401 458.802,389.568 455.5,393C 453.807,393.847 452.14,394.68 450.5,395.5C 451.902,393.517 453.736,391.851 456,390.5C 456.483,389.552 456.649,388.552 456.5,387.5C 453.436,387.072 450.436,386.406 447.5,385.5C 447.665,382.482 447.498,379.482 447,376.5C 446.667,376.833 446.333,377.167 446,377.5C 444.796,376.141 443.296,375.141 441.5,374.5C 439.703,371.74 438.037,368.906 436.5,366C 430.354,366.857 428.187,364.357 430,358.5C 432.468,357.896 434.468,356.562 436,354.5C 436.67,351.826 437.837,349.493 439.5,347.5 Z"/></g>
<g><path style="opacity:1" fill="#ec93ae" d="M 481.5,351.5 C 481.833,351.5 482.167,351.5 482.5,351.5C 482.586,355.319 481.919,358.985 480.5,362.5C 479.662,362.842 479.328,363.508 479.5,364.5C 476.203,366.133 474.536,368.8 474.5,372.5C 473.222,372.782 472.222,373.449 471.5,374.5C 471.5,373.5 471.5,372.5 471.5,371.5C 473.511,369.333 474.678,366.666 475,363.5C 479.886,361.033 482.052,357.033 481.5,351.5 Z"/></g>
<g><path style="opacity:0.196" fill="#a49ab6" d="M 484.5,357.5 C 483.54,362.086 481.54,366.086 478.5,369.5C 479.038,367.883 479.371,366.216 479.5,364.5C 479.328,363.508 479.662,362.842 480.5,362.5C 482.074,361.016 483.407,359.349 484.5,357.5 Z"/></g>
<g><path style="opacity:0.973" fill="#cfd6c9" d="M 39.5,364.5 C 41.4044,364.738 42.7377,365.738 43.5,367.5C 43.5,367.833 43.5,368.167 43.5,368.5C 42.8333,368.5 42.1667,368.5 41.5,368.5C 41.2671,366.938 40.6005,365.605 39.5,364.5 Z"/></g>
<g><path style="opacity:1" fill="#f6979f" d="M 439.5,341.5 C 439.833,341.5 440.167,341.5 440.5,341.5C 439.85,343.435 439.517,345.435 439.5,347.5C 437.837,349.493 436.67,351.826 436,354.5C 434.468,356.562 432.468,357.896 430,358.5C 428.187,364.357 430.354,366.857 436.5,366C 438.037,368.906 439.703,371.74 441.5,374.5C 443.296,375.141 444.796,376.141 446,377.5C 446.333,377.167 446.667,376.833 447,376.5C 447.498,379.482 447.665,382.482 447.5,385.5C 450.436,386.406 453.436,387.072 456.5,387.5C 456.649,388.552 456.483,389.552 456,390.5C 453.736,391.851 451.902,393.517 450.5,395.5C 449.833,396.833 448.833,397.833 447.5,398.5C 442.881,392.537 438.214,386.537 433.5,380.5C 430.663,379.669 428.496,378.002 427,375.5C 426.667,377.5 426.333,379.5 426,381.5C 424.167,379 422,376.833 419.5,375C 421.116,374.385 422.449,373.385 423.5,372C 422.004,371.493 420.837,371.993 420,373.5C 417.159,372.237 413.992,372.237 410.5,373.5C 414.036,371.99 417.37,369.99 420.5,367.5C 421.386,366.675 421.719,365.675 421.5,364.5C 423.5,364.167 425.5,363.833 427.5,363.5C 427.5,361.833 427.5,360.167 427.5,358.5C 428.833,357.5 430.167,356.5 431.5,355.5C 435.572,352.662 437.572,348.662 437.5,343.5C 438.167,342.833 438.833,342.167 439.5,341.5 Z"/></g>
<g><path style="opacity:1" fill="#feeeeb" d="M 416.5,366.5 C 414.664,368.588 412.331,369.921 409.5,370.5C 409.281,369.325 409.614,368.325 410.5,367.5C 412.409,366.652 414.409,366.318 416.5,366.5 Z"/></g>
<g><path style="opacity:1" fill="#eaa9a9" d="M 427.5,358.5 C 427.5,360.167 427.5,361.833 427.5,363.5C 425.5,363.833 423.5,364.167 421.5,364.5C 421.719,365.675 421.386,366.675 420.5,367.5C 417.37,369.99 414.036,371.99 410.5,373.5C 409.041,373.433 407.708,373.766 406.5,374.5C 401.692,376.242 396.692,376.909 391.5,376.5C 388.833,376.5 386.167,376.5 383.5,376.5C 383.5,376.167 383.5,375.833 383.5,375.5C 387.167,375.5 390.833,375.5 394.5,375.5C 399.169,374.91 403.503,373.577 407.5,371.5C 408.492,371.672 409.158,371.338 409.5,370.5C 412.331,369.921 414.664,368.588 416.5,366.5C 420.314,364.087 423.981,361.421 427.5,358.5 Z"/></g>
<g><path style="opacity:0.953" fill="#d69cb2" d="M 479.5,364.5 C 479.371,366.216 479.038,367.883 478.5,369.5C 477.167,370.5 475.833,371.5 474.5,372.5C 474.536,368.8 476.203,366.133 479.5,364.5 Z"/></g>
<g><path style="opacity:0.086" fill="#9baa93" d="M 41.5,368.5 C 42.1667,368.5 42.8333,368.5 43.5,368.5C 44.5,370.167 45.8333,371.5 47.5,372.5C 47.5,373.167 47.5,373.833 47.5,374.5C 45.1667,372.833 43.1667,370.833 41.5,368.5 Z"/></g>
<g><path style="opacity:1" fill="#e8d9a5" d="M 43.5,367.5 C 44.8333,367.5 46.1667,367.5 47.5,367.5C 47.3691,368.376 47.7025,369.043 48.5,369.5C 51.127,370.058 53.4604,371.058 55.5,372.5C 53.1944,372.007 50.861,371.674 48.5,371.5C 47.794,370.443 47.4607,370.776 47.5,372.5C 45.8333,371.5 44.5,370.167 43.5,368.5C 43.5,368.167 43.5,367.833 43.5,367.5 Z"/></g>
<g><path style="opacity:1" fill="#fef6e3" d="M 47.5,367.5 C 49.5273,367.338 51.5273,367.505 53.5,368C 58.1141,370.145 62.7807,371.978 67.5,373.5C 71.3123,374.324 75.3123,374.824 79.5,375C 180.833,375.5 282.166,375.667 383.5,375.5C 383.5,375.833 383.5,376.167 383.5,376.5C 279.167,376.5 174.833,376.5 70.5,376.5C 69.0413,376.567 67.7079,376.234 66.5,375.5C 63.325,373.12 59.6583,372.12 55.5,372.5C 53.4604,371.058 51.127,370.058 48.5,369.5C 47.7025,369.043 47.3691,368.376 47.5,367.5 Z"/></g>
<g><path style="opacity:1" fill="#f79a99" d="M 447.5,398.5 C 447.5,398.833 447.5,399.167 447.5,399.5C 442.617,399.11 439.283,401.11 437.5,405.5C 435.887,407.088 433.887,408.088 431.5,408.5C 430.167,408.5 428.833,408.5 427.5,408.5C 427.953,407.542 428.619,406.708 429.5,406C 426.437,404.934 424.937,402.767 425,399.5C 420.853,396.528 416.353,394.194 411.5,392.5C 409.833,390.833 408.167,389.167 406.5,387.5C 406.261,382.643 406.261,378.31 406.5,374.5C 407.708,373.766 409.041,373.433 410.5,373.5C 413.992,372.237 417.159,372.237 420,373.5C 420.837,371.993 422.004,371.493 423.5,372C 422.449,373.385 421.116,374.385 419.5,375C 422,376.833 424.167,379 426,381.5C 426.333,379.5 426.667,377.5 427,375.5C 428.496,378.002 430.663,379.669 433.5,380.5C 438.214,386.537 442.881,392.537 447.5,398.5 Z"/></g>
<g><path style="opacity:1" fill="#e7cc81" d="M 48.5,371.5 C 50.861,371.674 53.1944,372.007 55.5,372.5C 58.9065,374.074 62.5732,375.074 66.5,375.5C 67.7079,376.234 69.0413,376.567 70.5,376.5C 70.5,376.833 70.5,377.167 70.5,377.5C 67.8127,377.664 65.146,377.497 62.5,377C 59.3166,374.291 56.3166,374.125 53.5,376.5C 51.0887,375.483 49.422,373.816 48.5,371.5 Z"/></g>
<g><path style="opacity:1" fill="#fbf1c8" d="M 55.5,372.5 C 59.6583,372.12 63.325,373.12 66.5,375.5C 62.5732,375.074 58.9065,374.074 55.5,372.5 Z"/></g>
<g><path style="opacity:1" fill="#f9d6d1" d="M 407.5,371.5 C 403.503,373.577 399.169,374.91 394.5,375.5C 394.5,375.167 394.5,374.833 394.5,374.5C 398.721,373.122 403.054,372.122 407.5,371.5 Z"/></g>
<g><path style="opacity:0.855" fill="#c1be82" d="M 48.5,371.5 C 49.422,373.816 51.0887,375.483 53.5,376.5C 54.5,377.833 55.5,379.167 56.5,380.5C 55.8333,380.5 55.1667,380.5 54.5,380.5C 53.0892,378.086 51.0892,376.419 48.5,375.5C 47.8333,375.5 47.5,375.167 47.5,374.5C 47.5,373.833 47.5,373.167 47.5,372.5C 47.4607,370.776 47.794,370.443 48.5,371.5 Z"/></g>
<g><path style="opacity:1" fill="#fffbf3" d="M 67.5,373.5 C 176.495,373.246 285.495,373.579 394.5,374.5C 394.5,374.833 394.5,375.167 394.5,375.5C 390.833,375.5 387.167,375.5 383.5,375.5C 282.166,375.667 180.833,375.5 79.5,375C 75.3123,374.824 71.3123,374.324 67.5,373.5 Z"/></g>
<g><path style="opacity:0.216" fill="#97a691" d="M 48.5,375.5 C 51.0892,376.419 53.0892,378.086 54.5,380.5C 51.9108,379.581 49.9108,377.914 48.5,375.5 Z"/></g>
<g><path style="opacity:1" fill="#e9ba82" d="M 175.5,377.5 C 207.5,377.806 239.5,378.139 271.5,378.5C 271.5,378.833 271.5,379.167 271.5,379.5C 255.5,379.5 239.5,379.5 223.5,379.5C 207.5,378.833 191.5,378.167 175.5,377.5 Z"/></g>
<g><path style="opacity:1" fill="#e8c09f" d="M 70.5,377.5 C 70.5,377.167 70.5,376.833 70.5,376.5C 174.833,376.5 279.167,376.5 383.5,376.5C 346.167,377.167 308.833,377.833 271.5,378.5C 239.5,378.139 207.5,377.806 175.5,377.5C 140.5,377.5 105.5,377.5 70.5,377.5 Z"/></g>
<g><path style="opacity:1" fill="#e6aa97" d="M 383.5,376.5 C 386.167,376.5 388.833,376.5 391.5,376.5C 390.391,377.29 389.058,377.79 387.5,378C 380.842,378.5 374.175,378.666 367.5,378.5C 356.167,378.5 344.833,378.5 333.5,378.5C 312.833,378.5 292.167,378.5 271.5,378.5C 308.833,377.833 346.167,377.167 383.5,376.5 Z"/></g>
<g><path style="opacity:1" fill="#efca62" d="M 70.5,377.5 C 94.5,378.167 118.5,378.833 142.5,379.5C 117.831,379.667 93.1644,379.5 68.5,379C 65.905,378.774 63.405,378.274 61,377.5C 60.5065,379.134 60.3398,380.801 60.5,382.5C 59.3951,381.4 58.0618,380.733 56.5,380.5C 55.5,379.167 54.5,377.833 53.5,376.5C 56.3166,374.125 59.3166,374.291 62.5,377C 65.146,377.497 67.8127,377.664 70.5,377.5 Z"/></g>
<g><path style="opacity:1" fill="#ecc36e" d="M 70.5,377.5 C 105.5,377.5 140.5,377.5 175.5,377.5C 191.5,378.167 207.5,378.833 223.5,379.5C 218.167,379.5 212.833,379.5 207.5,379.5C 198.167,379.5 188.833,379.5 179.5,379.5C 178.167,379.5 176.833,379.5 175.5,379.5C 164.833,379.5 154.167,379.5 143.5,379.5C 143.167,379.5 142.833,379.5 142.5,379.5C 118.5,378.833 94.5,378.167 70.5,377.5 Z"/></g>
<g><path style="opacity:1" fill="#f5c35c" d="M 143.5,379.5 C 154.167,379.5 164.833,379.5 175.5,379.5C 165.219,381.476 154.552,382.143 143.5,381.5C 143.5,380.833 143.5,380.167 143.5,379.5 Z"/></g>
<g><path style="opacity:0.855" fill="#d1c586" d="M 56.5,380.5 C 58.0618,380.733 59.3951,381.4 60.5,382.5C 61.8333,384.167 63.1667,385.833 64.5,387.5C 63.8333,387.5 63.1667,387.5 62.5,387.5C 60.5,385.167 58.5,382.833 56.5,380.5 Z"/></g>
<g><path style="opacity:1" fill="#f7bf61" d="M 175.5,379.5 C 176.833,379.5 178.167,379.5 179.5,379.5C 182.641,380.321 185.975,380.821 189.5,381C 185.67,380.951 182.337,382.118 179.5,384.5C 183.578,389.249 188.245,393.249 193.5,396.5C 198.024,403.858 204.024,409.691 211.5,414C 209.382,414.26 207.716,415.26 206.5,417C 211.793,417.977 217.126,418.477 222.5,418.5C 222.5,418.833 222.5,419.167 222.5,419.5C 206.5,419.5 190.5,419.5 174.5,419.5C 174.5,418.833 174.833,418.5 175.5,418.5C 181.176,418.666 186.843,418.499 192.5,418C 190.551,414.576 188.885,411.076 187.5,407.5C 182.833,406.833 180.167,404.167 179.5,399.5C 174.833,398.833 172.167,396.167 171.5,391.5C 166.833,390.833 164.167,388.167 163.5,383.5C 158.933,383.968 154.266,383.968 149.5,383.5C 146.918,383.975 144.918,383.308 143.5,381.5C 154.552,382.143 165.219,381.476 175.5,379.5 Z"/></g>
<g><path style="opacity:1" fill="#f8ba69" d="M 207.5,379.5 C 212.833,379.5 218.167,379.5 223.5,379.5C 223.5,379.833 223.5,380.167 223.5,380.5C 217.573,381.087 211.573,381.92 205.5,383C 211.167,383.333 216.833,383.667 222.5,384C 223.12,386.473 223.786,388.973 224.5,391.5C 225.842,393.005 227.508,393.672 229.5,393.5C 230.158,398.482 232.158,402.815 235.5,406.5C 236.689,407.429 238.022,407.762 239.5,407.5C 239.042,410.394 239.709,412.894 241.5,415C 235.845,416.138 229.845,416.638 223.5,416.5C 223.466,414.329 223.133,411.996 222.5,409.5C 220.999,408.248 219.332,407.248 217.5,406.5C 216.167,404.5 214.833,402.5 213.5,400.5C 211.604,399.534 209.604,399.201 207.5,399.5C 208.227,394.677 206.227,391.677 201.5,390.5C 200.248,388.999 199.248,387.332 198.5,385.5C 195.944,384.949 193.611,383.949 191.5,382.5C 196.467,381.671 201.467,381.171 206.5,381C 207.056,380.617 207.389,380.117 207.5,379.5 Z"/></g>
<g><path style="opacity:1" fill="#f7a08e" d="M 409.5,414.5 C 407.517,414.157 406.183,414.824 405.5,416.5C 403.302,416.875 401.302,417.542 399.5,418.5C 394.138,418.472 388.805,418.806 383.5,419.5C 388.06,417.574 393.06,416.407 398.5,416C 395.146,415.545 391.813,415.045 388.5,414.5C 389.47,410.069 387.803,407.735 383.5,407.5C 383.5,404.833 383.5,402.167 383.5,399.5C 380.833,399.5 378.167,399.5 375.5,399.5C 374.833,394.833 372.167,392.167 367.5,391.5C 367.72,387.956 367.72,384.622 367.5,381.5C 371.808,380.632 376.141,380.466 380.5,381C 379.328,381.419 378.328,382.085 377.5,383C 379.107,384.049 379.773,385.549 379.5,387.5C 388.167,389.5 393.5,394.833 395.5,403.5C 402.252,404.592 406.918,408.259 409.5,414.5 Z"/></g>
<g><path style="opacity:0.208" fill="#9faa92" d="M 54.5,380.5 C 55.1667,380.5 55.8333,380.5 56.5,380.5C 58.5,382.833 60.5,385.167 62.5,387.5C 59.2358,385.906 56.5691,383.573 54.5,380.5 Z"/></g>
<g><path style="opacity:1" fill="#f8c45a" d="M 143.5,381.5 C 144.918,383.308 146.918,383.975 149.5,383.5C 154.491,386.76 159.825,389.76 165.5,392.5C 167.42,395.339 169.087,398.339 170.5,401.5C 174.156,404.663 178.156,407.329 182.5,409.5C 183.248,411.332 184.248,412.999 185.5,414.5C 183.314,415.221 181.147,415.887 179,416.5C 177.215,415.646 176.049,416.313 175.5,418.5C 174.833,418.5 174.5,418.833 174.5,419.5C 153.327,419.831 132.327,419.497 111.5,418.5C 127.17,418.667 142.837,418.5 158.5,418C 155.5,417.667 152.5,417.333 149.5,417C 153.5,416 157.5,415 161.5,414C 158.853,411.343 155.853,409.177 152.5,407.5C 151.833,404.833 151.167,402.167 150.5,399.5C 149.833,400.167 149.167,400.833 148.5,401.5C 145.817,398.984 143.317,396.317 141,393.5C 140.505,395.473 140.338,397.473 140.5,399.5C 138.067,397.38 135.734,395.046 133.5,392.5C 134.167,391.833 134.833,391.167 135.5,390.5C 134.137,389.107 133.304,387.441 133,385.5C 132.667,387.5 132.333,389.5 132,391.5C 131.009,390.061 129.676,389.061 128,388.5C 127.727,386.899 127.227,385.399 126.5,384C 110.113,384.374 95.2796,384.54 82,384.5C 81.2496,383.874 80.4162,383.374 79.5,383C 100.682,381.512 122.016,381.012 143.5,381.5 Z"/></g>
<g><path style="opacity:1" fill="#f7bd65" d="M 179.5,379.5 C 188.833,379.5 198.167,379.5 207.5,379.5C 207.389,380.117 207.056,380.617 206.5,381C 201.467,381.171 196.467,381.671 191.5,382.5C 193.611,383.949 195.944,384.949 198.5,385.5C 199.248,387.332 200.248,388.999 201.5,390.5C 206.227,391.677 208.227,394.677 207.5,399.5C 209.604,399.201 211.604,399.534 213.5,400.5C 214.833,402.5 216.167,404.5 217.5,406.5C 219.332,407.248 220.999,408.248 222.5,409.5C 223.133,411.996 223.466,414.329 223.5,416.5C 223.672,417.492 223.338,418.158 222.5,418.5C 217.126,418.477 211.793,417.977 206.5,417C 207.716,415.26 209.382,414.26 211.5,414C 204.024,409.691 198.024,403.858 193.5,396.5C 188.245,393.249 183.578,389.249 179.5,384.5C 182.337,382.118 185.67,380.951 189.5,381C 185.975,380.821 182.641,380.321 179.5,379.5 Z"/></g>
<g><path style="opacity:1" fill="#f7b078" d="M 270.5,381.5 C 278.875,381.316 287.208,381.816 295.5,383C 292.905,383.226 290.405,383.726 288,384.5C 287.503,386.81 287.337,389.143 287.5,391.5C 290.167,391.5 292.833,391.5 295.5,391.5C 295.5,394.167 295.5,396.833 295.5,399.5C 298.167,399.5 300.833,399.5 303.5,399.5C 303.5,402.167 303.5,404.833 303.5,407.5C 305.5,407.5 307.5,407.5 309.5,407.5C 309.336,410.187 309.503,412.854 310,415.5C 312.333,415.167 314.667,414.833 317,414.5C 317.708,415.381 318.542,416.047 319.5,416.5C 319.082,417.222 318.416,417.722 317.5,418C 318.416,418.278 319.082,418.778 319.5,419.5C 309.167,419.5 298.833,419.5 288.5,419.5C 287.766,418.292 287.433,416.959 287.5,415.5C 291.36,415.112 295.36,415.112 299.5,415.5C 299.577,412.988 298.577,410.988 296.5,409.5C 294.672,411.807 293.006,411.474 291.5,408.5C 292.167,407.833 292.833,407.167 293.5,406.5C 292.012,404.423 290.012,403.423 287.5,403.5C 287.813,406.247 287.48,408.914 286.5,411.5C 284.999,410.248 283.332,409.248 281.5,408.5C 286.694,406.942 286.694,405.942 281.5,405.5C 281.672,403.508 281.005,401.842 279.5,400.5C 280.689,399.571 282.022,399.238 283.5,399.5C 283.577,396.988 282.577,394.988 280.5,393.5C 278.672,395.807 277.006,395.474 275.5,392.5C 272.191,391.285 268.858,390.285 265.5,389.5C 265.773,387.549 265.107,386.049 263.5,385C 264.167,384.667 264.833,384.333 265.5,384C 262.118,383.824 258.785,383.324 255.5,382.5C 260.456,381.506 265.456,381.173 270.5,381.5 Z"/></g>
<g><path style="opacity:1" fill="#f7ad7b" d="M 272.5,379.5 C 283.029,379.47 293.362,380.137 303.5,381.5C 301.678,383.234 299.345,384.234 296.5,384.5C 295.167,385.5 295.167,386.5 296.5,387.5C 299.659,390.582 303.325,392.916 307.5,394.5C 309.42,397.339 311.087,400.339 312.5,403.5C 315.659,406.582 319.325,408.916 323.5,410.5C 324.853,411.524 325.52,412.857 325.5,414.5C 322.99,414.054 320.99,414.72 319.5,416.5C 318.542,416.047 317.708,415.381 317,414.5C 314.667,414.833 312.333,415.167 310,415.5C 309.503,412.854 309.336,410.187 309.5,407.5C 307.5,407.5 305.5,407.5 303.5,407.5C 303.5,404.833 303.5,402.167 303.5,399.5C 300.833,399.5 298.167,399.5 295.5,399.5C 295.5,396.833 295.5,394.167 295.5,391.5C 292.833,391.5 290.167,391.5 287.5,391.5C 287.337,389.143 287.503,386.81 288,384.5C 290.405,383.726 292.905,383.226 295.5,383C 287.208,381.816 278.875,381.316 270.5,381.5C 271.167,380.833 271.833,380.167 272.5,379.5 Z"/></g>
<g><path style="opacity:1" fill="#f8ab80" d="M 303.5,381.5 C 309.259,381.214 314.925,381.548 320.5,382.5C 321.953,383.825 321.619,384.658 319.5,385C 330.319,395.319 340.986,405.819 351.5,416.5C 350.975,417.192 350.308,417.692 349.5,418C 355.491,418.499 361.491,418.666 367.5,418.5C 367.5,418.833 367.5,419.167 367.5,419.5C 351.5,419.5 335.5,419.5 319.5,419.5C 319.082,418.778 318.416,418.278 317.5,418C 318.416,417.722 319.082,417.222 319.5,416.5C 320.99,414.72 322.99,414.054 325.5,414.5C 325.52,412.857 324.853,411.524 323.5,410.5C 319.325,408.916 315.659,406.582 312.5,403.5C 311.087,400.339 309.42,397.339 307.5,394.5C 303.325,392.916 299.659,390.582 296.5,387.5C 295.167,386.5 295.167,385.5 296.5,384.5C 299.345,384.234 301.678,383.234 303.5,381.5 Z"/></g>
<g><path style="opacity:1" fill="#f8a687" d="M 271.5,379.5 C 271.5,379.167 271.5,378.833 271.5,378.5C 292.167,378.5 312.833,378.5 333.5,378.5C 329.018,379.326 324.351,379.826 319.5,380C 330.208,380.354 340.874,381.187 351.5,382.5C 351.023,383.478 350.357,384.311 349.5,385C 351.754,387.419 354.421,389.252 357.5,390.5C 361.5,397.167 366.833,402.5 373.5,406.5C 375.871,408.766 377.871,411.266 379.5,414C 375.619,415.19 371.619,415.857 367.5,416C 367.833,416.333 368.167,416.667 368.5,417C 373.167,417.667 377.833,417.667 382.5,417C 383.09,415.701 384.09,414.868 385.5,414.5C 386.815,415.154 387.815,415.154 388.5,414.5C 391.813,415.045 395.146,415.545 398.5,416C 393.06,416.407 388.06,417.574 383.5,419.5C 378.167,419.5 372.833,419.5 367.5,419.5C 367.5,419.167 367.5,418.833 367.5,418.5C 366.729,416.227 365.396,415.894 363.5,417.5C 360.778,417.046 358.111,416.38 355.5,415.5C 356.025,414.808 356.692,414.308 357.5,414C 355.085,412.535 354.085,410.368 354.5,407.5C 352.857,407.48 351.524,408.147 350.5,409.5C 348.999,408.248 347.332,407.248 345.5,406.5C 343.58,403.661 341.913,400.661 340.5,397.5C 336.844,394.337 332.844,391.671 328.5,389.5C 327.752,387.668 326.752,386.001 325.5,384.5C 326.167,384.167 326.833,383.833 327.5,383.5C 325.257,382.526 322.924,382.192 320.5,382.5C 314.925,381.548 309.259,381.214 303.5,381.5C 293.362,380.137 283.029,379.47 272.5,379.5C 272.167,379.5 271.833,379.5 271.5,379.5 Z"/></g>
<g><path style="opacity:1" fill="#f8a38b" d="M 333.5,378.5 C 344.833,378.5 356.167,378.5 367.5,378.5C 367.5,379.5 367.5,380.5 367.5,381.5C 367.72,384.622 367.72,387.956 367.5,391.5C 372.167,392.167 374.833,394.833 375.5,399.5C 378.167,399.5 380.833,399.5 383.5,399.5C 383.5,402.167 383.5,404.833 383.5,407.5C 387.803,407.735 389.47,410.069 388.5,414.5C 387.815,415.154 386.815,415.154 385.5,414.5C 384.09,414.868 383.09,415.701 382.5,417C 377.833,417.667 373.167,417.667 368.5,417C 368.167,416.667 367.833,416.333 367.5,416C 371.619,415.857 375.619,415.19 379.5,414C 377.871,411.266 375.871,408.766 373.5,406.5C 366.833,402.5 361.5,397.167 357.5,390.5C 354.421,389.252 351.754,387.419 349.5,385C 350.357,384.311 351.023,383.478 351.5,382.5C 340.874,381.187 330.208,380.354 319.5,380C 324.351,379.826 329.018,379.326 333.5,378.5 Z"/></g>
<g><path style="opacity:1" fill="#f79d93" d="M 406.5,374.5 C 406.261,378.31 406.261,382.643 406.5,387.5C 408.167,389.167 409.833,390.833 411.5,392.5C 416.353,394.194 420.853,396.528 425,399.5C 424.937,402.767 426.437,404.934 429.5,406C 428.619,406.708 427.953,407.542 427.5,408.5C 421.303,410.387 415.303,412.387 409.5,414.5C 406.918,408.259 402.252,404.592 395.5,403.5C 393.5,394.833 388.167,389.5 379.5,387.5C 379.773,385.549 379.107,384.049 377.5,383C 378.328,382.085 379.328,381.419 380.5,381C 376.141,380.466 371.808,380.632 367.5,381.5C 367.5,380.5 367.5,379.5 367.5,378.5C 374.175,378.666 380.842,378.5 387.5,378C 389.058,377.79 390.391,377.29 391.5,376.5C 396.692,376.909 401.692,376.242 406.5,374.5 Z"/></g>
<g><path style="opacity:1" fill="#f7c955" d="M 142.5,379.5 C 142.833,379.5 143.167,379.5 143.5,379.5C 143.5,380.167 143.5,380.833 143.5,381.5C 122.016,381.012 100.682,381.512 79.5,383C 80.4162,383.374 81.2496,383.874 82,384.5C 95.2796,384.54 110.113,384.374 126.5,384C 127.227,385.399 127.727,386.899 128,388.5C 129.676,389.061 131.009,390.061 132,391.5C 132.333,389.5 132.667,387.5 133,385.5C 133.304,387.441 134.137,389.107 135.5,390.5C 134.833,391.167 134.167,391.833 133.5,392.5C 135.734,395.046 138.067,397.38 140.5,399.5C 141.5,399.5 142.5,399.5 143.5,399.5C 144.131,405.795 143.298,411.795 141,417.5C 140.333,414.833 139.667,414.833 139,417.5C 138.333,414.833 137.667,414.833 137,417.5C 136.333,414.833 135.667,414.833 135,417.5C 134.333,414.833 133.667,414.833 133,417.5C 132.333,414.833 131.667,414.833 131,417.5C 130.333,414.833 129.667,414.833 129,417.5C 128.333,414.833 127.667,414.833 127,417.5C 126.333,414.833 125.667,414.833 125,417.5C 124.333,414.833 123.667,414.833 123,417.5C 122.333,414.833 121.667,414.833 121,417.5C 119.667,414.833 118.333,414.833 117,417.5C 116.667,416.833 116.333,416.167 116,415.5C 114.69,416.897 113.19,417.897 111.5,418.5C 108.447,418.889 105.78,418.223 103.5,416.5C 103.771,414.179 103.104,412.179 101.5,410.5C 97.5546,409.509 93.5546,409.176 89.5,409.5C 87.8527,406.36 86.0194,403.36 84,400.5C 82.3333,399.833 80.6667,399.167 79,398.5C 78.5172,397.552 78.3505,396.552 78.5,395.5C 76.7839,395.371 75.1172,395.038 73.5,394.5C 70.7673,391.761 67.7673,389.427 64.5,387.5C 63.1667,385.833 61.8333,384.167 60.5,382.5C 60.3398,380.801 60.5065,379.134 61,377.5C 63.405,378.274 65.905,378.774 68.5,379C 93.1644,379.5 117.831,379.667 142.5,379.5 Z"/></g>
<g><path style="opacity:1" fill="#f7b373" d="M 223.5,380.5 C 223.5,380.167 223.5,379.833 223.5,379.5C 239.5,379.5 255.5,379.5 271.5,379.5C 271.833,379.5 272.167,379.5 272.5,379.5C 271.833,380.167 271.167,380.833 270.5,381.5C 265.456,381.173 260.456,381.506 255.5,382.5C 258.785,383.324 262.118,383.824 265.5,384C 264.833,384.333 264.167,384.667 263.5,385C 265.107,386.049 265.773,387.549 265.5,389.5C 268.858,390.285 272.191,391.285 275.5,392.5C 277.006,395.474 278.672,395.807 280.5,393.5C 282.577,394.988 283.577,396.988 283.5,399.5C 282.022,399.238 280.689,399.571 279.5,400.5C 281.005,401.842 281.672,403.508 281.5,405.5C 286.694,405.942 286.694,406.942 281.5,408.5C 283.332,409.248 284.999,410.248 286.5,411.5C 287.48,408.914 287.813,406.247 287.5,403.5C 290.012,403.423 292.012,404.423 293.5,406.5C 292.833,407.167 292.167,407.833 291.5,408.5C 293.006,411.474 294.672,411.807 296.5,409.5C 298.577,410.988 299.577,412.988 299.5,415.5C 295.36,415.112 291.36,415.112 287.5,415.5C 287.433,416.959 287.766,418.292 288.5,419.5C 277.5,419.5 266.5,419.5 255.5,419.5C 260.64,418.512 265.974,418.179 271.5,418.5C 271.973,413.977 269.973,411.643 265.5,411.5C 265.5,410.167 265.5,408.833 265.5,407.5C 264.167,407.5 262.833,407.5 261.5,407.5C 261.5,406.167 261.5,404.833 261.5,403.5C 260.022,403.762 258.689,403.429 257.5,402.5C 256.167,400.5 254.833,398.5 253.5,396.5C 252.311,395.571 250.978,395.238 249.5,395.5C 249.5,394.167 249.5,392.833 249.5,391.5C 248.167,391.5 246.833,391.5 245.5,391.5C 245.5,390.167 245.5,388.833 245.5,387.5C 242.988,387.577 240.988,386.577 239.5,384.5C 238.289,383.28 238.289,382.113 239.5,381C 234.177,380.501 228.844,380.334 223.5,380.5 Z"/></g>
<g><path style="opacity:0.929" fill="#d7c981" d="M 64.5,387.5 C 67.7673,389.427 70.7673,391.761 73.5,394.5C 74.8333,396.167 76.1667,397.833 77.5,399.5C 77.1667,399.5 76.8333,399.5 76.5,399.5C 72.1667,395.833 68.1667,391.833 64.5,387.5 Z"/></g>
<g><path style="opacity:0.851" fill="#de9db0" d="M 474.5,372.5 C 473.658,375.885 471.824,378.551 469,380.5C 468.333,381.833 467.667,383.167 467,384.5C 461.539,388.294 456.705,392.794 452.5,398C 450.807,398.847 449.14,399.68 447.5,400.5C 447.5,400.167 447.5,399.833 447.5,399.5C 447.5,399.167 447.5,398.833 447.5,398.5C 448.833,397.833 449.833,396.833 450.5,395.5C 452.14,394.68 453.807,393.847 455.5,393C 458.802,389.568 462.135,386.401 465.5,383.5C 467.436,380.544 469.436,377.544 471.5,374.5C 472.222,373.449 473.222,372.782 474.5,372.5 Z"/></g>
<g><path style="opacity:0.271" fill="#a3ad90" d="M 62.5,387.5 C 63.1667,387.5 63.8333,387.5 64.5,387.5C 68.1667,391.833 72.1667,395.833 76.5,399.5C 76.8333,400.167 77.1667,400.833 77.5,401.5C 71.8918,397.561 66.8918,392.894 62.5,387.5 Z"/></g>
<g><path style="opacity:1" fill="#f7c15d" d="M 149.5,383.5 C 154.266,383.968 158.933,383.968 163.5,383.5C 164.167,388.167 166.833,390.833 171.5,391.5C 172.167,396.167 174.833,398.833 179.5,399.5C 180.167,404.167 182.833,406.833 187.5,407.5C 188.885,411.076 190.551,414.576 192.5,418C 186.843,418.499 181.176,418.666 175.5,418.5C 176.049,416.313 177.215,415.646 179,416.5C 181.147,415.887 183.314,415.221 185.5,414.5C 184.248,412.999 183.248,411.332 182.5,409.5C 178.156,407.329 174.156,404.663 170.5,401.5C 169.087,398.339 167.42,395.339 165.5,392.5C 159.825,389.76 154.491,386.76 149.5,383.5 Z"/></g>
<g><path style="opacity:1" fill="#f8b76d" d="M 223.5,380.5 C 228.844,380.334 234.177,380.501 239.5,381C 238.289,382.113 238.289,383.28 239.5,384.5C 240.988,386.577 242.988,387.577 245.5,387.5C 245.5,388.833 245.5,390.167 245.5,391.5C 246.833,391.5 248.167,391.5 249.5,391.5C 249.5,392.833 249.5,394.167 249.5,395.5C 250.978,395.238 252.311,395.571 253.5,396.5C 254.833,398.5 256.167,400.5 257.5,402.5C 258.689,403.429 260.022,403.762 261.5,403.5C 261.5,404.833 261.5,406.167 261.5,407.5C 262.833,407.5 264.167,407.5 265.5,407.5C 265.5,408.833 265.5,410.167 265.5,411.5C 269.973,411.643 271.973,413.977 271.5,418.5C 265.974,418.179 260.64,418.512 255.5,419.5C 244.5,419.5 233.5,419.5 222.5,419.5C 222.5,419.167 222.5,418.833 222.5,418.5C 223.338,418.158 223.672,417.492 223.5,416.5C 229.845,416.638 235.845,416.138 241.5,415C 239.709,412.894 239.042,410.394 239.5,407.5C 238.022,407.762 236.689,407.429 235.5,406.5C 232.158,402.815 230.158,398.482 229.5,393.5C 227.508,393.672 225.842,393.005 224.5,391.5C 223.786,388.973 223.12,386.473 222.5,384C 216.833,383.667 211.167,383.333 205.5,383C 211.573,381.92 217.573,381.087 223.5,380.5 Z"/></g>
<g><path style="opacity:0.761" fill="#c1bd84" d="M 76.5,399.5 C 76.8333,399.5 77.1667,399.5 77.5,399.5C 79.5,401.5 81.5,403.5 83.5,405.5C 82.8333,405.5 82.1667,405.5 81.5,405.5C 79.8333,404.5 78.5,403.167 77.5,401.5C 77.1667,400.833 76.8333,400.167 76.5,399.5 Z"/></g>
<g><path style="opacity:1" fill="#f8c656" d="M 111.5,418.5 C 113.19,417.897 114.69,416.897 116,415.5C 116.333,416.167 116.667,416.833 117,417.5C 118.333,414.833 119.667,414.833 121,417.5C 121.667,414.833 122.333,414.833 123,417.5C 123.667,414.833 124.333,414.833 125,417.5C 125.667,414.833 126.333,414.833 127,417.5C 127.667,414.833 128.333,414.833 129,417.5C 129.667,414.833 130.333,414.833 131,417.5C 131.667,414.833 132.333,414.833 133,417.5C 133.667,414.833 134.333,414.833 135,417.5C 135.667,414.833 136.333,414.833 137,417.5C 137.667,414.833 138.333,414.833 139,417.5C 139.667,414.833 140.333,414.833 141,417.5C 143.298,411.795 144.131,405.795 143.5,399.5C 142.5,399.5 141.5,399.5 140.5,399.5C 140.338,397.473 140.505,395.473 141,393.5C 143.317,396.317 145.817,398.984 148.5,401.5C 149.167,400.833 149.833,400.167 150.5,399.5C 151.167,402.167 151.833,404.833 152.5,407.5C 155.853,409.177 158.853,411.343 161.5,414C 157.5,415 153.5,416 149.5,417C 152.5,417.333 155.5,417.667 158.5,418C 142.837,418.5 127.17,418.667 111.5,418.5 Z"/></g>
<g><path style="opacity:1" fill="#f8a883" d="M 320.5,382.5 C 322.924,382.192 325.257,382.526 327.5,383.5C 326.833,383.833 326.167,384.167 325.5,384.5C 326.752,386.001 327.752,387.668 328.5,389.5C 332.844,391.671 336.844,394.337 340.5,397.5C 341.913,400.661 343.58,403.661 345.5,406.5C 347.332,407.248 348.999,408.248 350.5,409.5C 351.524,408.147 352.857,407.48 354.5,407.5C 354.085,410.368 355.085,412.535 357.5,414C 356.692,414.308 356.025,414.808 355.5,415.5C 358.111,416.38 360.778,417.046 363.5,417.5C 365.396,415.894 366.729,416.227 367.5,418.5C 361.491,418.666 355.491,418.499 349.5,418C 350.308,417.692 350.975,417.192 351.5,416.5C 340.986,405.819 330.319,395.319 319.5,385C 321.619,384.658 321.953,383.825 320.5,382.5 Z"/></g>
<g><path style="opacity:1" fill="#ea9ea3" d="M 447.5,399.5 C 447.5,399.833 447.5,400.167 447.5,400.5C 447.5,400.833 447.5,401.167 447.5,401.5C 446.127,401.343 444.793,401.51 443.5,402C 441.937,403.947 439.937,405.114 437.5,405.5C 439.283,401.11 442.617,399.11 447.5,399.5 Z"/></g>
<g><path style="opacity:0.149" fill="#ab9cb0" d="M 478.5,369.5 C 471.29,383.378 460.957,394.378 447.5,402.5C 447.5,402.167 447.5,401.833 447.5,401.5C 447.5,401.167 447.5,400.833 447.5,400.5C 449.14,399.68 450.807,398.847 452.5,398C 456.705,392.794 461.539,388.294 467,384.5C 467.667,383.167 468.333,381.833 469,380.5C 471.824,378.551 473.658,375.885 474.5,372.5C 475.833,371.5 477.167,370.5 478.5,369.5 Z"/></g>
<g><path style="opacity:1" fill="#eccb67" d="M 73.5,394.5 C 75.1172,395.038 76.7839,395.371 78.5,395.5C 78.3505,396.552 78.5172,397.552 79,398.5C 80.6667,399.167 82.3333,399.833 84,400.5C 86.0194,403.36 87.8527,406.36 89.5,409.5C 87.7541,407.748 85.7541,406.415 83.5,405.5C 81.5,403.5 79.5,401.5 77.5,399.5C 76.1667,397.833 74.8333,396.167 73.5,394.5 Z"/></g>
<g><path style="opacity:0.286" fill="#a4ad8b" d="M 81.5,405.5 C 82.1667,405.5 82.8333,405.5 83.5,405.5C 85.1667,407.5 86.8333,409.5 88.5,411.5C 85.5726,410.243 83.2393,408.243 81.5,405.5 Z"/></g>
<g><path style="opacity:0.878" fill="#d4c97f" d="M 83.5,405.5 C 85.7541,406.415 87.7541,407.748 89.5,409.5C 89.8333,410.167 90.1667,410.833 90.5,411.5C 89.8333,411.5 89.1667,411.5 88.5,411.5C 86.8333,409.5 85.1667,407.5 83.5,405.5 Z"/></g>
<g><path style="opacity:0.314" fill="#bca0ad" d="M 447.5,401.5 C 447.5,401.833 447.5,402.167 447.5,402.5C 442.316,406.26 436.65,409.26 430.5,411.5C 428.447,411.402 426.78,412.069 425.5,413.5C 423.784,413.629 422.117,413.962 420.5,414.5C 423.768,411.746 427.434,409.746 431.5,408.5C 433.887,408.088 435.887,407.088 437.5,405.5C 439.937,405.114 441.937,403.947 443.5,402C 444.793,401.51 446.127,401.343 447.5,401.5 Z"/></g>
<g><path style="opacity:1" fill="#f4c95c" d="M 89.5,409.5 C 93.5546,409.176 97.5546,409.509 101.5,410.5C 103.104,412.179 103.771,414.179 103.5,416.5C 102.167,416.5 100.833,416.5 99.5,416.5C 97.1112,415.946 95.4445,414.446 94.5,412C 93.2068,411.51 91.8734,411.343 90.5,411.5C 90.1667,410.833 89.8333,410.167 89.5,409.5 Z"/></g>
<g><path style="opacity:1" fill="#ddca7a" d="M 90.5,411.5 C 91.8734,411.343 93.2068,411.51 94.5,412C 95.4445,414.446 97.1112,415.946 99.5,416.5C 98.1667,416.5 96.8333,416.5 95.5,416.5C 95.0269,415.094 94.0269,414.427 92.5,414.5C 91.8333,413.5 91.1667,412.5 90.5,411.5 Z"/></g>
<g><path style="opacity:1" fill="#e9a49f" d="M 427.5,408.5 C 428.833,408.5 430.167,408.5 431.5,408.5C 427.434,409.746 423.768,411.746 420.5,414.5C 418.585,414.216 416.919,414.549 415.5,415.5C 412.098,415.342 408.764,415.676 405.5,416.5C 406.183,414.824 407.517,414.157 409.5,414.5C 415.303,412.387 421.303,410.387 427.5,408.5 Z"/></g>
<g><path style="opacity:0.2" fill="#a8ad93" d="M 88.5,411.5 C 89.1667,411.5 89.8333,411.5 90.5,411.5C 91.1667,412.5 91.8333,413.5 92.5,414.5C 90.5956,414.262 89.2623,413.262 88.5,411.5 Z"/></g>
<g><path style="opacity:0.063" fill="#9d9dae" d="M 430.5,411.5 C 429.22,412.931 427.553,413.598 425.5,413.5C 426.78,412.069 428.447,411.402 430.5,411.5 Z"/></g>
<g><path style="opacity:0.082" fill="#95a98b" d="M 92.5,414.5 C 94.0269,414.427 95.0269,415.094 95.5,416.5C 93.9731,416.573 92.9731,415.906 92.5,414.5 Z"/></g>
<g><path style="opacity:0.843" fill="#dca8a2" d="M 415.5,415.5 C 410.401,417.101 405.067,418.101 399.5,418.5C 401.302,417.542 403.302,416.875 405.5,416.5C 408.764,415.676 412.098,415.342 415.5,415.5 Z"/></g>
<g><path style="opacity:0.082" fill="#b0a2a8" d="M 425.5,413.5 C 414.156,418.571 402.156,421.238 389.5,421.5C 392.548,419.881 395.881,418.881 399.5,418.5C 405.067,418.101 410.401,417.101 415.5,415.5C 416.919,414.549 418.585,414.216 420.5,414.5C 422.117,413.962 423.784,413.629 425.5,413.5 Z"/></g>
<g><path style="opacity:0.977" fill="#eaca70" d="M 99.5,416.5 C 100.833,416.5 102.167,416.5 103.5,416.5C 105.78,418.223 108.447,418.889 111.5,418.5C 132.327,419.497 153.327,419.831 174.5,419.5C 153.673,420.497 132.673,420.831 111.5,420.5C 106.867,420.84 102.867,419.506 99.5,416.5 Z"/></g>
<g><path style="opacity:0.684" fill="#dbaba2" d="M 399.5,418.5 C 395.881,418.881 392.548,419.881 389.5,421.5C 388.5,421.5 387.5,421.5 386.5,421.5C 353.5,421.5 320.5,421.5 287.5,421.5C 319.5,420.833 351.5,420.167 383.5,419.5C 388.805,418.806 394.138,418.472 399.5,418.5 Z"/></g>
<g><path style="opacity:0.687" fill="#dab88e" d="M 174.5,419.5 C 190.5,419.5 206.5,419.5 222.5,419.5C 233.5,419.5 244.5,419.5 255.5,419.5C 266.5,419.5 277.5,419.5 288.5,419.5C 298.833,419.5 309.167,419.5 319.5,419.5C 335.5,419.5 351.5,419.5 367.5,419.5C 372.833,419.5 378.167,419.5 383.5,419.5C 351.5,420.167 319.5,420.833 287.5,421.5C 248.833,421.5 210.167,421.5 171.5,421.5C 151.326,421.83 131.326,421.497 111.5,420.5C 132.673,420.831 153.673,420.497 174.5,419.5 Z"/></g>
<g><path style="opacity:0.252" fill="#abb48e" d="M 95.5,416.5 C 96.8333,416.5 98.1667,416.5 99.5,416.5C 102.867,419.506 106.867,420.84 111.5,420.5C 131.326,421.497 151.326,421.83 171.5,421.5C 152.341,422.497 133.007,422.83 113.5,422.5C 106.703,422.64 100.703,420.64 95.5,416.5 Z"/></g>
<g><path style="opacity:0.033" fill="#93a4a0" d="M 171.5,421.5 C 210.167,421.5 248.833,421.5 287.5,421.5C 320.5,421.5 353.5,421.5 386.5,421.5C 332.842,423.018 279.008,423.684 225,423.5C 187.665,423.5 150.498,423.167 113.5,422.5C 133.007,422.83 152.341,422.497 171.5,421.5 Z"/></g>
</svg>
