<svg xmlns="http://www.w3.org/2000/svg" width="44" height="42" viewBox="0 0 44 42" fill="none">
  <path d="M39.2857 0H4.71429C3.46398 0 2.26488 0.464229 1.38078 1.29056C0.496682 2.11689 0 3.23764 0 4.40625L0 36.7188C0 37.8874 0.496682 39.0081 1.38078 39.8344C2.26488 40.6608 3.46398 41.125 4.71429 41.125H18.1942V27.1434H12.0067V20.5625H18.1942V15.5467C18.1942 9.84154 21.8281 6.69016 27.3939 6.69016C30.0595 6.69016 32.8468 7.13445 32.8468 7.13445V12.7341H29.7756C26.7496 12.7341 25.8058 14.4892 25.8058 16.2894V20.5625H32.561L31.4806 27.1434H25.8058V41.125H39.2857C40.536 41.125 41.7351 40.6608 42.6192 39.8344C43.5033 39.0081 44 37.8874 44 36.7188V4.40625C44 3.23764 43.5033 2.11689 42.6192 1.29056C41.7351 0.464229 40.536 0 39.2857 0Z" fill="#443539"/>
</svg>