<svg xmlns="http://www.w3.org/2000/svg" width="46" height="26" viewBox="0 0 46 26" fill="none">
  <g clip-path="url(#clip0_93_16)">
    <path d="M30.5667 24.199H34.3875C35.295 24.199 36.1308 23.8965 36.5845 23.3974L45.4998 13.7178C45.9615 13.2187 45.9615 12.6037 45.5077 12.0995C45.054 11.5954 44.2182 11.2929 43.3028 11.2929H11.4625C10.5551 11.2929 9.71925 11.5954 9.26553 12.0945L3.82084 18.0031V4.83982C3.82084 4.39617 4.39396 4.03318 5.09445 4.03318H14.4475C14.7819 4.03318 15.1082 4.11889 15.347 4.27013L17.4564 5.60612C19.1281 6.66482 21.3967 7.25972 23.7608 7.25972H33.1139C33.8144 7.25972 34.3875 7.6227 34.3875 8.06635V9.67962H38.2084V8.06635C38.2084 6.28671 35.9238 4.83982 33.1139 4.83982H23.7608C22.4076 4.83982 21.1101 4.50204 20.1549 3.89706L18.0455 2.55603C17.0903 1.95106 15.7928 1.61328 14.4396 1.61328H5.09445C2.28454 1.61328 0 3.06018 0 4.83982V20.9725C0 22.7521 2.28454 24.199 5.09445 24.199H6.98099H30.5667Z" fill="#300F1D"/>
  </g>
  <defs>
    <clipPath id="clip0_93_16">
      <rect width="45.85" height="25.8123" fill="white"/>
    </clipPath>
  </defs>
</svg>