<svg xmlns="http://www.w3.org/2000/svg" width="31" height="41" viewBox="0 0 31 41" fill="none">
  <g clip-path="url(#clip0_200_830)">
    <path d="M17.4133 39.975C21.5547 34.834 31 22.3738 31 15.375C31 6.88672 24.0573 0 15.5 0C6.94271 0 0 6.88672 0 15.375C0 22.3738 9.44531 34.834 13.5867 39.975C14.5797 41.2002 16.4203 41.2002 17.4133 39.975ZM15.5 10.25C16.8703 10.25 18.1844 10.79 19.1534 11.7511C20.1223 12.7122 20.6667 14.0158 20.6667 15.375C20.6667 16.7342 20.1223 18.0378 19.1534 18.9989C18.1844 19.96 16.8703 20.5 15.5 20.5C14.1297 20.5 12.8156 19.96 11.8466 18.9989C10.8777 18.0378 10.3333 16.7342 10.3333 15.375C10.3333 14.0158 10.8777 12.7122 11.8466 11.7511C12.8156 10.79 14.1297 10.25 15.5 10.25Z" fill="#443539"/>
  </g>
  <defs>
    <clipPath id="clip0_200_830">
      <rect width="31" height="41" fill="white"/>
    </clipPath>
  </defs>
</svg>