<svg xmlns="http://www.w3.org/2000/svg" width="37" height="26" viewBox="0 0 37 26" fill="none">
  <path d="M35.2808 5.1699C36.6994 4.20497 36.6994 2.63791 35.2808 1.67298C33.8621 0.708046 31.5583 0.708046 30.1396 1.67298L18.1891 9.8093L6.22719 1.6807C4.80856 0.715766 2.5047 0.715766 1.08607 1.6807C-0.332563 2.64563 -0.332563 4.21268 1.08607 5.17762L13.048 13.3062L1.09742 21.4425C-0.321214 22.4075 -0.321214 23.9745 1.09742 24.9395C2.51605 25.9044 4.81991 25.9044 6.23854 24.9395L18.1891 16.8031L30.151 24.9317C31.5696 25.8967 33.8735 25.8967 35.2921 24.9317C36.7107 23.9668 36.7107 22.3998 35.2921 21.4348L23.3302 13.3062L35.2808 5.1699Z" fill="#300F1D"/>
</svg>