<svg xmlns="http://www.w3.org/2000/svg" width="44" height="40" viewBox="0 0 44 40" fill="none">
  <path d="M22.0049 9.73775C15.762 9.73775 10.7264 14.3134 10.7264 19.9861C10.7264 25.6589 15.762 30.2345 22.0049 30.2345C28.2479 30.2345 33.2834 25.6589 33.2834 19.9861C33.2834 14.3134 28.2479 9.73775 22.0049 9.73775ZM22.0049 26.6489C17.9706 26.6489 14.6724 23.6609 14.6724 19.9861C14.6724 16.3113 17.9607 13.3233 22.0049 13.3233C26.0491 13.3233 29.3374 16.3113 29.3374 19.9861C29.3374 23.6609 26.0393 26.6489 22.0049 26.6489ZM36.3755 9.31854C36.3755 10.6475 35.1975 11.7089 33.7448 11.7089C32.2822 11.7089 31.1141 10.6386 31.1141 9.31854C31.1141 7.99847 32.292 6.92814 33.7448 6.92814C35.1975 6.92814 36.3755 7.99847 36.3755 9.31854ZM43.8454 11.7446C43.6785 8.54255 42.8736 5.70618 40.292 3.3693C37.7202 1.03242 34.5988 0.30103 31.0748 0.140481C27.4429 -0.0468268 16.5571 -0.0468268 12.9252 0.140481C9.41104 0.29211 6.28957 1.0235 3.70798 3.36038C1.12638 5.69727 0.331288 8.53363 0.154601 11.7357C-0.0515337 15.0359 -0.0515337 24.9275 0.154601 28.2277C0.321472 31.4297 1.12638 34.2661 3.70798 36.603C6.28957 38.9399 9.40123 39.6712 12.9252 39.8318C16.5571 40.0191 27.4429 40.0191 31.0748 39.8318C34.5988 39.6802 37.7202 38.9488 40.292 36.603C42.8638 34.2661 43.6687 31.4297 43.8454 28.2277C44.0515 24.9275 44.0515 15.0448 43.8454 11.7446ZM39.1534 31.7687C38.3877 33.5169 36.9055 34.8637 34.9718 35.5683C32.0761 36.6119 25.2049 36.3711 22.0049 36.3711C18.8049 36.3711 11.9239 36.603 9.03804 35.5683C7.11411 34.8726 5.6319 33.5258 4.85644 31.7687C3.70798 29.1374 3.97301 22.8939 3.97301 19.9861C3.97301 17.0784 3.71779 10.8259 4.85644 8.20362C5.62209 6.45541 7.10429 5.10858 9.03804 4.40395C11.9337 3.36038 18.8049 3.60121 22.0049 3.60121C25.2049 3.60121 32.0859 3.3693 34.9718 4.40395C36.8957 5.09967 38.3779 6.44649 39.1534 8.20362C40.3018 10.8348 40.0368 17.0784 40.0368 19.9861C40.0368 22.8939 40.3018 29.1464 39.1534 31.7687Z" fill="#443539"/>
</svg>